<?xml version="1.0" encoding="UTF-8"?>
<svg width="115px" height="73px" viewBox="0 0 115 73" version="1.1" xmlns="http://www.w3.org/2000/svg" xmlns:xlink="http://www.w3.org/1999/xlink">
    <title>Cloud</title>
    <g id="Cloud" stroke="none" stroke-width="1" fill="none" fill-rule="evenodd">
        <path d="M69,0 C85.5685425,0 99,13.4314575 99,30 C99,31.1371577 98.9367303,32.259538 98.813519,33.3638127 C108.035277,35.1435548 115,43.2584283 115,53 C115,64.045695 106.045695,73 95,73 L15,73 L14.6861718,72.9967822 C6.54678637,72.8297302 0,66.1794071 0,58 C0,49.7157288 6.71572875,43 15,43 C15.2283333,43 15.4554751,43.0051018 15.6813174,43.0151976 C15.236215,41.2505512 15,39.4028611 15,37.5 C15,25.0735931 25.0735931,15 37.5,15 C39.2814754,15 41.0145942,15.2070394 42.6766072,15.598369 C47.7727412,6.30260171 57.6503448,0 69,0 Z" fill="#5FD3F4"></path>
    </g>
</svg>