<?xml version="1.0" encoding="UTF-8"?>
<svg width="200px" height="200px" viewBox="0 0 200 200" version="1.1" xmlns="http://www.w3.org/2000/svg" xmlns:xlink="http://www.w3.org/1999/xlink">
    <title>Group</title>
    <g id="Page-2" stroke="none" stroke-width="1" fill="none" fill-rule="evenodd">
        <g id="Group">
            <circle id="Oval" fill="#3C2D18" cx="100" cy="100" r="100"></circle>
            <g id="compass-sketch-11.54.02-PM-2"></g>
            <rect id="Rectangle" fill="#FFFFFF" x="99" y="0" width="2" height="10"></rect>
            <rect id="Rectangle" fill="#FFFFFF" transform="translate(108.4977, 2.871) rotate(5) translate(-108.4977, -2.871)" x="107.497685" y="0.371016936" width="2" height="5"></rect>
            <rect id="Rectangle" fill="#FFFFFF" transform="translate(116.4966, 6.4433) rotate(10) translate(-116.4966, -6.4433)" x="115.496577" y="1.44326346" width="2" height="10"></rect>
            <rect id="Rectangle" fill="#FFFFFF" transform="translate(125.2349, 5.8222) rotate(15) translate(-125.2349, -5.8222)" x="124.234857" y="3.32223194" width="2" height="5"></rect>
            <rect id="Rectangle" fill="#FFFFFF" transform="translate(132.4919, 10.7292) rotate(20) translate(-132.4919, -10.7292)" x="131.491914" y="5.72920103" width="2" height="10"></rect>
            <rect id="Rectangle" fill="#FFFFFF" transform="translate(141.2053, 11.635) rotate(25) translate(-141.2053, -11.635)" x="140.205281" y="9.13499076" width="2" height="5"></rect>
            <rect id="Rectangle" fill="#FFFFFF" transform="translate(147.5, 17.7276) rotate(30) translate(-147.5, -17.7276)" x="146.5" y="12.7275866" width="2" height="10"></rect>
            <rect id="Rectangle" fill="#FFFFFF" transform="translate(155.9237, 20.1327) rotate(35) translate(-155.9237, -20.1327)" x="154.923703" y="17.6326757" width="2" height="5"></rect>
            <rect id="Rectangle" fill="#FFFFFF" transform="translate(161.0648, 27.2258) rotate(40) translate(-161.0648, -27.2258)" x="160.064823" y="22.2257779" width="2" height="10"></rect>
            <rect id="Rectangle" fill="#FFFFFF" transform="translate(168.9429, 31.0571) rotate(45) translate(-168.9429, -31.0571)" x="167.942911" y="28.5570888" width="2" height="5"></rect>
            <rect id="Rectangle" fill="#FFFFFF" transform="translate(172.7742, 38.9352) rotate(50) translate(-172.7742, -38.9352)" x="171.774222" y="33.9351771" width="2" height="10"></rect>
            <rect id="Rectangle" fill="#FFFFFF" transform="translate(179.8673, 44.0763) rotate(55) translate(-179.8673, -44.0763)" x="178.867324" y="41.5762975" width="2" height="5"></rect>
            <rect id="Rectangle" fill="#FFFFFF" transform="translate(182.2724, 52.5) rotate(60) translate(-182.2724, -52.5)" x="181.272413" y="47.5" width="2" height="10"></rect>
            <rect id="Rectangle" fill="#FFFFFF" transform="translate(188.365, 58.7947) rotate(65) translate(-188.365, -58.7947)" x="187.365009" y="56.2947195" width="2" height="5"></rect>
            <rect id="Rectangle" fill="#FFFFFF" transform="translate(189.2708, 67.5081) rotate(70) translate(-189.2708, -67.5081)" x="188.270799" y="62.5080864" width="2" height="10"></rect>
            <rect id="Rectangle" fill="#FFFFFF" transform="translate(194.1778, 74.7651) rotate(75) translate(-194.1778, -74.7651)" x="193.177768" y="72.2651431" width="2" height="5"></rect>
            <rect id="Rectangle" fill="#FFFFFF" transform="translate(193.5567, 83.5034) rotate(80) translate(-193.5567, -83.5034)" x="192.556737" y="78.5034231" width="2" height="10"></rect>
            <rect id="Rectangle" fill="#FFFFFF" transform="translate(197.129, 91.5023) rotate(85) translate(-197.129, -91.5023)" x="196.128983" y="89.0023151" width="2" height="5"></rect>
            <rect id="Rectangle" fill="#FFFFFF" transform="translate(195, 100) rotate(90) translate(-195, -100)" x="194" y="95" width="2" height="10"></rect>
            <rect id="Rectangle" fill="#FFFFFF" transform="translate(197.129, 108.4977) rotate(95) translate(-197.129, -108.4977)" x="196.128983" y="105.997685" width="2" height="5"></rect>
            <rect id="Rectangle" fill="#FFFFFF" transform="translate(193.5567, 116.4966) rotate(100) translate(-193.5567, -116.4966)" x="192.556737" y="111.496577" width="2" height="10"></rect>
            <rect id="Rectangle" fill="#FFFFFF" transform="translate(194.1778, 125.2349) rotate(105) translate(-194.1778, -125.2349)" x="193.177768" y="122.734857" width="2" height="5"></rect>
            <rect id="Rectangle" fill="#FFFFFF" transform="translate(189.2708, 132.4919) rotate(110) translate(-189.2708, -132.4919)" x="188.270799" y="127.491914" width="2" height="10"></rect>
            <rect id="Rectangle" fill="#FFFFFF" transform="translate(188.365, 141.2053) rotate(115) translate(-188.365, -141.2053)" x="187.365009" y="138.705281" width="2" height="5"></rect>
            <rect id="Rectangle" fill="#FFFFFF" transform="translate(182.2724, 147.5) rotate(120) translate(-182.2724, -147.5)" x="181.272413" y="142.5" width="2" height="10"></rect>
            <rect id="Rectangle" fill="#FFFFFF" transform="translate(179.8673, 155.9237) rotate(125) translate(-179.8673, -155.9237)" x="178.867324" y="153.423703" width="2" height="5"></rect>
            <rect id="Rectangle" fill="#FFFFFF" transform="translate(172.7742, 161.0648) rotate(130) translate(-172.7742, -161.0648)" x="171.774222" y="156.064823" width="2" height="10"></rect>
            <rect id="Rectangle" fill="#FFFFFF" transform="translate(168.9429, 168.9429) rotate(135) translate(-168.9429, -168.9429)" x="167.942911" y="166.442911" width="2" height="5"></rect>
            <rect id="Rectangle" fill="#FFFFFF" transform="translate(161.0648, 172.7742) rotate(140) translate(-161.0648, -172.7742)" x="160.064823" y="167.774222" width="2" height="10"></rect>
            <rect id="Rectangle" fill="#FFFFFF" transform="translate(155.9237, 179.8673) rotate(145) translate(-155.9237, -179.8673)" x="154.923703" y="177.367324" width="2" height="5"></rect>
            <rect id="Rectangle" fill="#FFFFFF" transform="translate(147.5, 182.2724) rotate(150) translate(-147.5, -182.2724)" x="146.5" y="177.272413" width="2" height="10"></rect>
            <rect id="Rectangle" fill="#FFFFFF" transform="translate(141.2053, 188.365) rotate(155) translate(-141.2053, -188.365)" x="140.205281" y="185.865009" width="2" height="5"></rect>
            <rect id="Rectangle" fill="#FFFFFF" transform="translate(132.4919, 189.2708) rotate(160) translate(-132.4919, -189.2708)" x="131.491914" y="184.270799" width="2" height="10"></rect>
            <rect id="Rectangle" fill="#FFFFFF" transform="translate(125.2349, 194.1778) rotate(165) translate(-125.2349, -194.1778)" x="124.234857" y="191.677768" width="2" height="5"></rect>
            <rect id="Rectangle" fill="#FFFFFF" transform="translate(116.4966, 193.5567) rotate(170) translate(-116.4966, -193.5567)" x="115.496577" y="188.556737" width="2" height="10"></rect>
            <rect id="Rectangle" fill="#FFFFFF" transform="translate(108.4977, 197.129) rotate(175) translate(-108.4977, -197.129)" x="107.497685" y="194.628983" width="2" height="5"></rect>
            <rect id="Rectangle" fill="#FFFFFF" transform="translate(100, 195) rotate(180) translate(-100, -195)" x="99" y="190" width="2" height="10"></rect>
            <rect id="Rectangle" fill="#FFFFFF" transform="translate(91.5023, 197.129) rotate(185) translate(-91.5023, -197.129)" x="90.5023151" y="194.628983" width="2" height="5"></rect>
            <rect id="Rectangle" fill="#FFFFFF" transform="translate(83.5034, 193.5567) rotate(190) translate(-83.5034, -193.5567)" x="82.5034231" y="188.556737" width="2" height="10"></rect>
            <rect id="Rectangle" fill="#FFFFFF" transform="translate(74.7651, 194.1778) rotate(195) translate(-74.7651, -194.1778)" x="73.7651431" y="191.677768" width="2" height="5"></rect>
            <rect id="Rectangle" fill="#FFFFFF" transform="translate(67.5081, 189.2708) rotate(200) translate(-67.5081, -189.2708)" x="66.5080864" y="184.270799" width="2" height="10"></rect>
            <rect id="Rectangle" fill="#FFFFFF" transform="translate(58.7947, 188.365) rotate(205) translate(-58.7947, -188.365)" x="57.7947195" y="185.865009" width="2" height="5"></rect>
            <rect id="Rectangle" fill="#FFFFFF" transform="translate(52.5, 182.2724) rotate(210) translate(-52.5, -182.2724)" x="51.5" y="177.272413" width="2" height="10"></rect>
            <rect id="Rectangle" fill="#FFFFFF" transform="translate(44.0763, 179.8673) rotate(215) translate(-44.0763, -179.8673)" x="43.0762975" y="177.367324" width="2" height="5"></rect>
            <rect id="Rectangle" fill="#FFFFFF" transform="translate(38.9352, 172.7742) rotate(220) translate(-38.9352, -172.7742)" x="37.9351771" y="167.774222" width="2" height="10"></rect>
            <rect id="Rectangle" fill="#FFFFFF" transform="translate(31.0571, 168.9429) rotate(225) translate(-31.0571, -168.9429)" x="30.0570888" y="166.442911" width="2" height="5"></rect>
            <rect id="Rectangle" fill="#FFFFFF" transform="translate(27.2258, 161.0648) rotate(230) translate(-27.2258, -161.0648)" x="26.2257779" y="156.064823" width="2" height="10"></rect>
            <rect id="Rectangle" fill="#FFFFFF" transform="translate(20.1327, 155.9237) rotate(235) translate(-20.1327, -155.9237)" x="19.1326757" y="153.423703" width="2" height="5"></rect>
            <rect id="Rectangle" fill="#FFFFFF" transform="translate(17.7276, 147.5) rotate(240) translate(-17.7276, -147.5)" x="16.7275866" y="142.5" width="2" height="10"></rect>
            <rect id="Rectangle" fill="#FFFFFF" transform="translate(11.635, 141.2053) rotate(245) translate(-11.635, -141.2053)" x="10.6349908" y="138.705281" width="2" height="5"></rect>
            <rect id="Rectangle" fill="#FFFFFF" transform="translate(10.7292, 132.4919) rotate(250) translate(-10.7292, -132.4919)" x="9.72920103" y="127.491914" width="2" height="10"></rect>
            <rect id="Rectangle" fill="#FFFFFF" transform="translate(5.8222, 125.2349) rotate(255) translate(-5.8222, -125.2349)" x="4.82223194" y="122.734857" width="2" height="5"></rect>
            <rect id="Rectangle" fill="#FFFFFF" transform="translate(6.4433, 116.4966) rotate(260) translate(-6.4433, -116.4966)" x="5.44326346" y="111.496577" width="2" height="10"></rect>
            <rect id="Rectangle" fill="#FFFFFF" transform="translate(2.871, 108.4977) rotate(265) translate(-2.871, -108.4977)" x="1.87101694" y="105.997685" width="2" height="5"></rect>
            <rect id="Rectangle" fill="#FFFFFF" transform="translate(5, 100) rotate(270) translate(-5, -100)" x="4" y="95" width="2" height="10"></rect>
            <rect id="Rectangle" fill="#FFFFFF" transform="translate(2.871, 91.5023) rotate(275) translate(-2.871, -91.5023)" x="1.87101694" y="89.0023151" width="2" height="5"></rect>
            <rect id="Rectangle" fill="#FFFFFF" transform="translate(6.4433, 83.5034) rotate(280) translate(-6.4433, -83.5034)" x="5.44326346" y="78.5034231" width="2" height="10"></rect>
            <rect id="Rectangle" fill="#FFFFFF" transform="translate(5.8222, 74.7651) rotate(285) translate(-5.8222, -74.7651)" x="4.82223194" y="72.2651431" width="2" height="5"></rect>
            <rect id="Rectangle" fill="#FFFFFF" transform="translate(10.7292, 67.5081) rotate(290) translate(-10.7292, -67.5081)" x="9.72920103" y="62.5080864" width="2" height="10"></rect>
            <rect id="Rectangle" fill="#FFFFFF" transform="translate(11.635, 58.7947) rotate(295) translate(-11.635, -58.7947)" x="10.6349908" y="56.2947195" width="2" height="5"></rect>
            <rect id="Rectangle" fill="#FFFFFF" transform="translate(17.7276, 52.5) rotate(300) translate(-17.7276, -52.5)" x="16.7275866" y="47.5" width="2" height="10"></rect>
            <rect id="Rectangle" fill="#FFFFFF" transform="translate(20.1327, 44.0763) rotate(305) translate(-20.1327, -44.0763)" x="19.1326757" y="41.5762975" width="2" height="5"></rect>
            <rect id="Rectangle" fill="#FFFFFF" transform="translate(27.2258, 38.9352) rotate(310) translate(-27.2258, -38.9352)" x="26.2257779" y="33.9351771" width="2" height="10"></rect>
            <rect id="Rectangle" fill="#FFFFFF" transform="translate(31.0571, 31.0571) rotate(315) translate(-31.0571, -31.0571)" x="30.0570888" y="28.5570888" width="2" height="5"></rect>
            <rect id="Rectangle" fill="#FFFFFF" transform="translate(38.9352, 27.2258) rotate(320) translate(-38.9352, -27.2258)" x="37.9351771" y="22.2257779" width="2" height="10"></rect>
            <rect id="Rectangle" fill="#FFFFFF" transform="translate(44.0763, 20.1327) rotate(325) translate(-44.0763, -20.1327)" x="43.0762975" y="17.6326757" width="2" height="5"></rect>
            <rect id="Rectangle" fill="#FFFFFF" transform="translate(52.5, 17.7276) rotate(330) translate(-52.5, -17.7276)" x="51.5" y="12.7275866" width="2" height="10"></rect>
            <rect id="Rectangle" fill="#FFFFFF" transform="translate(58.7947, 11.635) rotate(335) translate(-58.7947, -11.635)" x="57.7947195" y="9.13499076" width="2" height="5"></rect>
            <rect id="Rectangle" fill="#FFFFFF" transform="translate(67.5081, 10.7292) rotate(340) translate(-67.5081, -10.7292)" x="66.5080864" y="5.72920103" width="2" height="10"></rect>
            <rect id="Rectangle" fill="#FFFFFF" transform="translate(74.7651, 5.8222) rotate(345) translate(-74.7651, -5.8222)" x="73.7651431" y="3.32223194" width="2" height="5"></rect>
            <rect id="Rectangle" fill="#FFFFFF" transform="translate(83.5034, 6.4433) rotate(350) translate(-83.5034, -6.4433)" x="82.5034231" y="1.44326346" width="2" height="10"></rect>
            <rect id="Rectangle" fill="#FFFFFF" transform="translate(91.5023, 2.871) rotate(355) translate(-91.5023, -2.871)" x="90.5023151" y="0.371016936" width="2" height="5"></rect>
            <text id="N" font-family="Helvetica" font-size="12" font-weight="normal" fill="#FFFFFF">
                <tspan x="96" y="22">N</tspan>
            </text>
            <text id="3" transform="translate(141.5, 29) rotate(30) translate(-141.5, -29)" font-family="Helvetica" font-size="12" font-weight="normal" fill="#FFFFFF">
                <tspan x="138" y="33">3</tspan>
            </text>
            <text id="6" transform="translate(171.5, 59) rotate(60) translate(-171.5, -59)" font-family="Helvetica" font-size="12" font-weight="normal" fill="#FFFFFF">
                <tspan x="168" y="63">6</tspan>
            </text>
            <text id="12" transform="translate(171.25, 141.0311) rotate(120) translate(-171.25, -141.0311)" font-family="Helvetica" font-size="12" font-weight="normal" fill="#FFFFFF">
                <tspan x="164.25" y="145.031089">12</tspan>
            </text>
            <text id="15" transform="translate(140.9494, 171.4455) rotate(150) translate(-140.9494, -171.4455)" font-family="Helvetica" font-size="12" font-weight="normal" fill="#FFFFFF">
                <tspan x="133.949442" y="175.445547">15</tspan>
            </text>
            <text id="21" transform="translate(59.25, 171.0311) rotate(210) translate(-59.25, -171.0311)" font-family="Helvetica" font-size="12" font-weight="normal" fill="#FFFFFF">
                <tspan x="52.25" y="175.031089">21</tspan>
            </text>
            <text id="24" transform="translate(29.25, 141.0311) rotate(-119) translate(-29.25, -141.0311)" font-family="Helvetica" font-size="12" font-weight="normal" fill="#FFFFFF">
                <tspan x="22.25" y="145.031089">24</tspan>
            </text>
            <text id="30" transform="translate(29.25, 59.0311) rotate(-61) translate(-29.25, -59.0311)" font-family="Helvetica" font-size="12" font-weight="normal" fill="#FFFFFF">
                <tspan x="22.25" y="63.0310889">30</tspan>
            </text>
            <text id="33" transform="translate(59.25, 28.0311) rotate(-30) translate(-59.25, -28.0311)" font-family="Helvetica" font-size="12" font-weight="normal" fill="#FFFFFF">
                <tspan x="52.25" y="32.0310889">33</tspan>
            </text>
            <text id="E" transform="translate(181.5, 99.5) rotate(90) translate(-181.5, -99.5)" font-family="Helvetica" font-size="12" font-weight="normal" fill="#FFFFFF">
                <tspan x="177.5" y="103.5">E</tspan>
            </text>
            <text id="W" transform="translate(18, 100) rotate(-90) translate(-18, -100)" font-family="Helvetica" font-size="12" font-weight="normal" fill="#FFFFFF">
                <tspan x="12" y="104">W</tspan>
            </text>
            <text id="S" transform="translate(99.5, 182) rotate(-180) translate(-99.5, -182)" font-family="Helvetica" font-size="12" font-weight="normal" fill="#FFFFFF">
                <tspan x="95" y="186">S</tspan>
            </text>
            <circle id="Oval" stroke="#979797" cx="100" cy="100" r="54.5"></circle>
        </g>
    </g>
</svg>