<?xml version="1.0" encoding="UTF-8"?>
<svg width="30px" height="36px" viewBox="0 0 30 36" version="1.1" xmlns="http://www.w3.org/2000/svg" xmlns:xlink="http://www.w3.org/1999/xlink">
    <title>LeftButton</title>
    <g id="CustomButtons" stroke="none" stroke-width="1" fill="none" fill-rule="evenodd">
        <g id="ComboButton" transform="translate(0, -2)">
            <g id="LeftButton" transform="translate(0, 1.998)">
                <path d="M1.95565487,0.500310893 L12.2612351,0.501949153 C16.8764913,0.771598492 21.0145815,2.82310948 23.994186,5.9779848 C26.9582352,9.11638988 28.7757676,13.3469124 28.7757676,18.0019515 C28.7757676,22.6583676 26.9571692,26.8900381 23.9914471,30.025388 C21.0120653,33.175179 16.8750451,35.2187264 12.2610903,35.4746932 L1.96547246,35.4975848 C4.67839582,33.836526 6.97510403,31.5621639 8.66262362,28.867341 C10.6352297,25.7172595 11.7757676,21.9928148 11.7757676,18.0019515 C11.7757676,14.0102673 10.6347606,10.2851114 8.66140639,7.13461838 C6.97196411,4.43739554 4.67220255,2.16149263 1.95565487,0.500310893 Z" id="Combined-Shape" stroke="#000000" fill="#87CEEB" transform="translate(14.6379, 18.001) rotate(180) translate(-14.6379, -18.001)"></path>
                <polygon id="Triangle" fill="#000000" transform="translate(9, 18.002) scale(1, -1) rotate(-90) translate(-9, -18.002)" points="9 14.0019515 13 22.0019515 5 22.0019515"></polygon>
            </g>
        </g>
    </g>
</svg>