<?xml version="1.0" encoding="UTF-8"?>
<svg width="260px" height="250px" viewBox="0 0 260 250" version="1.1" xmlns="http://www.w3.org/2000/svg" xmlns:xlink="http://www.w3.org/1999/xlink">
    <title>OuterFramework</title>
    <g id="Compass-+-HSI" stroke="none" stroke-width="1" fill="none" fill-rule="evenodd">
        <g id="OuterFramework">
            <path d="M260,0 L260,250 L0,250 L0,0 L260,0 Z M130,30 C74.771525,30 30,74.771525 30,130 C30,185.228475 74.771525,230 130,230 C185.228475,230 230,185.228475 230,130 C230,74.771525 185.228475,30 130,30 Z" id="Outer-Case" fill="#503715" fill-rule="nonzero"></path>
            <path d="M260,200 L260,250 L0,250 L0,200 L55.8110092,200.000345 C74.4082212,219.703252 100.768081,232 130,232 C159.231919,232 185.591779,219.703252 204.188991,200.000345 L260,200 Z" id="Combined-Shape" fill="#000000"></path>
            <g id="Outer-marks" transform="translate(17, 17)" fill="#FFFFFF" fill-rule="nonzero">
                <rect id="Rectangle" x="0" y="111.5" width="11" height="3"></rect>
                <rect id="Rectangle" transform="translate(36.986, 36.986) rotate(45) translate(-36.986, -36.986)" x="31.486" y="35.4860297" width="11" height="3"></rect>
                <polygon id="Triangle" stroke="#505050" stroke-width="0.5" stroke-linejoin="round" transform="translate(113, 9.5) scale(-1, 1) rotate(-180) translate(-113, -9.5)" points="113 0 120 19 106 19"></polygon>
                <rect id="Rectangle" transform="translate(189.014, 36.986) rotate(135) translate(-189.014, -36.986)" x="183.514" y="35.4859703" width="11" height="3"></rect>
                <rect id="Rectangle" transform="translate(220.5, 113) rotate(180) translate(-220.5, -113)" x="215" y="111.5" width="11" height="3"></rect>
            </g>
            <polygon id="miniplane" stroke="#000000" stroke-width="0.5" fill="#FFFFFF" fill-rule="nonzero" points="126 139 126 138 128 136 128 131 121 131 121 129 128 127.444 128 124 130 122 132 124 132 127.444 139 129 139 131 132 131 132 136 134 138 134 139"></polygon>
        </g>
    </g>
</svg>