<?xml version="1.0" encoding="UTF-8"?>
<svg width="1033px" height="1020px" viewBox="0 0 1033 1020" version="1.1" xmlns="http://www.w3.org/2000/svg" xmlns:xlink="http://www.w3.org/1999/xlink">
    <title>TestMap</title>
    <g id="TestMap" stroke="none" stroke-width="1" fill="none" fill-rule="evenodd">
        <g id="MilePoint">
            <g transform="translate(500, 1000)">
                <path d="M0,5 L4,0 L8,5 L6,5 L6,20 L2,20 L2,5 L0,5 Z" id="Combined-Shape" fill="#FF0000"></path>
                <text id="(0,-5)" fill="#000000" fill-rule="nonzero" font-family="Helvetica" font-size="6" font-weight="normal">
                    <tspan x="9" y="6">(0,-5)</tspan>
                </text>
            </g>
            <g transform="translate(500, 900)">
                <path d="M0,5 L4,0 L8,5 L6,5 L6,20 L2,20 L2,5 L0,5 Z" id="Combined-Shape" fill="#FF0000"></path>
                <text id="(0,-4)" fill="#000000" fill-rule="nonzero" font-family="Helvetica" font-size="6" font-weight="normal">
                    <tspan x="9" y="6">(0,-4)</tspan>
                </text>
            </g>
            <g transform="translate(500, 800)">
                <path d="M0,5 L4,0 L8,5 L6,5 L6,20 L2,20 L2,5 L0,5 Z" id="Combined-Shape" fill="#FF0000"></path>
                <text id="(0,-3)" fill="#000000" fill-rule="nonzero" font-family="Helvetica" font-size="6" font-weight="normal">
                    <tspan x="9" y="6">(0,-3)</tspan>
                </text>
            </g>
            <g transform="translate(500, 700)">
                <path d="M0,5 L4,0 L8,5 L6,5 L6,20 L2,20 L2,5 L0,5 Z" id="Combined-Shape" fill="#FF0000"></path>
                <text id="(0,-2)" fill="#000000" fill-rule="nonzero" font-family="Helvetica" font-size="6" font-weight="normal">
                    <tspan x="9" y="6">(0,-2)</tspan>
                </text>
            </g>
            <g transform="translate(500, 600)">
                <path d="M0,5 L4,0 L8,5 L6,5 L6,20 L2,20 L2,5 L0,5 Z" id="Combined-Shape" fill="#FF0000"></path>
                <text id="(0,-1)" fill="#000000" fill-rule="nonzero" font-family="Helvetica" font-size="6" font-weight="normal">
                    <tspan x="9" y="6">(0,-1)</tspan>
                </text>
            </g>
            <g transform="translate(500, 500)">
                <path d="M0,5 L4,0 L8,5 L6,5 L6,20 L2,20 L2,5 L0,5 Z" id="Combined-Shape" fill="#0000FF"></path>
                <text id="(0,0)" fill="#000000" fill-rule="nonzero" font-family="Helvetica" font-size="6" font-weight="normal">
                    <tspan x="9" y="6">(0,0)</tspan>
                </text>
            </g>
            <g transform="translate(500, 400)">
                <path d="M0,5 L4,0 L8,5 L6,5 L6,20 L2,20 L2,5 L0,5 Z" id="Combined-Shape" fill="#FF0000"></path>
                <text id="(0,1)" fill="#000000" fill-rule="nonzero" font-family="Helvetica" font-size="6" font-weight="normal">
                    <tspan x="9" y="6">(0,1)</tspan>
                </text>
            </g>
            <g transform="translate(500, 300)">
                <path d="M0,5 L4,0 L8,5 L6,5 L6,20 L2,20 L2,5 L0,5 Z" id="Combined-Shape" fill="#FF0000"></path>
                <text id="(0,2)" fill="#000000" fill-rule="nonzero" font-family="Helvetica" font-size="6" font-weight="normal">
                    <tspan x="9" y="6">(0,2)</tspan>
                </text>
            </g>
            <g transform="translate(500, 200)">
                <path d="M0,5 L4,0 L8,5 L6,5 L6,20 L2,20 L2,5 L0,5 Z" id="Combined-Shape" fill="#FF0000"></path>
                <text id="(0,3)" fill="#000000" fill-rule="nonzero" font-family="Helvetica" font-size="6" font-weight="normal">
                    <tspan x="9" y="6">(0,3)</tspan>
                </text>
            </g>
            <g transform="translate(500, 100)">
                <path d="M0,5 L4,0 L8,5 L6,5 L6,20 L2,20 L2,5 L0,5 Z" id="Combined-Shape" fill="#FF0000"></path>
                <text id="(0,4)" fill="#000000" fill-rule="nonzero" font-family="Helvetica" font-size="6" font-weight="normal">
                    <tspan x="9" y="6">(0,4)</tspan>
                </text>
            </g>
            <g transform="translate(500, 0)">
                <path d="M0,5 L4,0 L8,5 L6,5 L6,20 L2,20 L2,5 L0,5 Z" id="Combined-Shape" fill="#FF0000"></path>
                <text id="(0,5)" fill="#000000" fill-rule="nonzero" font-family="Helvetica" font-size="6" font-weight="normal">
                    <tspan x="9" y="6">(0,5)</tspan>
                </text>
            </g>
            <g transform="translate(600, 1000)">
                <path d="M0,5 L4,0 L8,5 L6,5 L6,20 L2,20 L2,5 L0,5 Z" id="Combined-Shape" fill="#FF0000"></path>
                <text id="(1,-5)" fill="#000000" fill-rule="nonzero" font-family="Helvetica" font-size="6" font-weight="normal">
                    <tspan x="9" y="6">(1,-5)</tspan>
                </text>
            </g>
            <g transform="translate(600, 900)">
                <path d="M0,5 L4,0 L8,5 L6,5 L6,20 L2,20 L2,5 L0,5 Z" id="Combined-Shape" fill="#FF0000"></path>
                <text id="(1,-4)" fill="#000000" fill-rule="nonzero" font-family="Helvetica" font-size="6" font-weight="normal">
                    <tspan x="9" y="6">(1,-4)</tspan>
                </text>
            </g>
            <g transform="translate(600, 800)">
                <path d="M0,5 L4,0 L8,5 L6,5 L6,20 L2,20 L2,5 L0,5 Z" id="Combined-Shape" fill="#FF0000"></path>
                <text id="(1,-3)" fill="#000000" fill-rule="nonzero" font-family="Helvetica" font-size="6" font-weight="normal">
                    <tspan x="9" y="6">(1,-3)</tspan>
                </text>
            </g>
            <g transform="translate(600, 700)">
                <path d="M0,5 L4,0 L8,5 L6,5 L6,20 L2,20 L2,5 L0,5 Z" id="Combined-Shape" fill="#FF0000"></path>
                <text id="(1,-2)" fill="#000000" fill-rule="nonzero" font-family="Helvetica" font-size="6" font-weight="normal">
                    <tspan x="9" y="6">(1,-2)</tspan>
                </text>
            </g>
            <g transform="translate(600, 600)">
                <path d="M0,5 L4,0 L8,5 L6,5 L6,20 L2,20 L2,5 L0,5 Z" id="Combined-Shape" fill="#FF0000"></path>
                <text id="(1,-1)" fill="#000000" fill-rule="nonzero" font-family="Helvetica" font-size="6" font-weight="normal">
                    <tspan x="9" y="6">(1,-1)</tspan>
                </text>
            </g>
            <g transform="translate(600, 500)">
                <path d="M0,5 L4,0 L8,5 L6,5 L6,20 L2,20 L2,5 L0,5 Z" id="Combined-Shape" fill="#FF0000"></path>
                <text id="(1,0)" fill="#000000" fill-rule="nonzero" font-family="Helvetica" font-size="6" font-weight="normal">
                    <tspan x="9" y="6">(1,0)</tspan>
                </text>
            </g>
            <g transform="translate(600, 400)">
                <path d="M0,5 L4,0 L8,5 L6,5 L6,20 L2,20 L2,5 L0,5 Z" id="Combined-Shape" fill="#FF0000"></path>
                <text id="(1,1)" fill="#000000" fill-rule="nonzero" font-family="Helvetica" font-size="6" font-weight="normal">
                    <tspan x="9" y="6">(1,1)</tspan>
                </text>
            </g>
            <g transform="translate(600, 300)">
                <path d="M0,5 L4,0 L8,5 L6,5 L6,20 L2,20 L2,5 L0,5 Z" id="Combined-Shape" fill="#FF0000"></path>
                <text id="(1,2)" fill="#000000" fill-rule="nonzero" font-family="Helvetica" font-size="6" font-weight="normal">
                    <tspan x="9" y="6">(1,2)</tspan>
                </text>
            </g>
            <g transform="translate(600, 200)">
                <path d="M0,5 L4,0 L8,5 L6,5 L6,20 L2,20 L2,5 L0,5 Z" id="Combined-Shape" fill="#FF0000"></path>
                <text id="(1,3)" fill="#000000" fill-rule="nonzero" font-family="Helvetica" font-size="6" font-weight="normal">
                    <tspan x="9" y="6">(1,3)</tspan>
                </text>
            </g>
            <g transform="translate(600, 100)">
                <path d="M0,5 L4,0 L8,5 L6,5 L6,20 L2,20 L2,5 L0,5 Z" id="Combined-Shape" fill="#FF0000"></path>
                <text id="(1,4)" fill="#000000" fill-rule="nonzero" font-family="Helvetica" font-size="6" font-weight="normal">
                    <tspan x="9" y="6">(1,4)</tspan>
                </text>
            </g>
            <g transform="translate(600, 0)">
                <path d="M0,5 L4,0 L8,5 L6,5 L6,20 L2,20 L2,5 L0,5 Z" id="Combined-Shape" fill="#FF0000"></path>
                <text id="(1,5)" fill="#000000" fill-rule="nonzero" font-family="Helvetica" font-size="6" font-weight="normal">
                    <tspan x="9" y="6">(1,5)</tspan>
                </text>
            </g>
            <g transform="translate(700, 1000)">
                <path d="M0,5 L4,0 L8,5 L6,5 L6,20 L2,20 L2,5 L0,5 Z" id="Combined-Shape" fill="#FF0000"></path>
                <text id="(2,-5)" fill="#000000" fill-rule="nonzero" font-family="Helvetica" font-size="6" font-weight="normal">
                    <tspan x="9" y="6">(2,-5)</tspan>
                </text>
            </g>
            <g transform="translate(700, 900)">
                <path d="M0,5 L4,0 L8,5 L6,5 L6,20 L2,20 L2,5 L0,5 Z" id="Combined-Shape" fill="#FF0000"></path>
                <text id="(2,-4)" fill="#000000" fill-rule="nonzero" font-family="Helvetica" font-size="6" font-weight="normal">
                    <tspan x="9" y="6">(2,-4)</tspan>
                </text>
            </g>
            <g transform="translate(700, 800)">
                <path d="M0,5 L4,0 L8,5 L6,5 L6,20 L2,20 L2,5 L0,5 Z" id="Combined-Shape" fill="#FF0000"></path>
                <text id="(2,-3)" fill="#000000" fill-rule="nonzero" font-family="Helvetica" font-size="6" font-weight="normal">
                    <tspan x="9" y="6">(2,-3)</tspan>
                </text>
            </g>
            <g transform="translate(700, 700)">
                <path d="M0,5 L4,0 L8,5 L6,5 L6,20 L2,20 L2,5 L0,5 Z" id="Combined-Shape" fill="#FF0000"></path>
                <text id="(2,-2)" fill="#000000" fill-rule="nonzero" font-family="Helvetica" font-size="6" font-weight="normal">
                    <tspan x="9" y="6">(2,-2)</tspan>
                </text>
            </g>
            <g transform="translate(700, 600)">
                <path d="M0,5 L4,0 L8,5 L6,5 L6,20 L2,20 L2,5 L0,5 Z" id="Combined-Shape" fill="#FF0000"></path>
                <text id="(2,-1)" fill="#000000" fill-rule="nonzero" font-family="Helvetica" font-size="6" font-weight="normal">
                    <tspan x="9" y="6">(2,-1)</tspan>
                </text>
            </g>
            <g transform="translate(700, 500)">
                <path d="M0,5 L4,0 L8,5 L6,5 L6,20 L2,20 L2,5 L0,5 Z" id="Combined-Shape" fill="#FF0000"></path>
                <text id="(2,0)" fill="#000000" fill-rule="nonzero" font-family="Helvetica" font-size="6" font-weight="normal">
                    <tspan x="9" y="6">(2,0)</tspan>
                </text>
            </g>
            <g transform="translate(700, 400)">
                <path d="M0,5 L4,0 L8,5 L6,5 L6,20 L2,20 L2,5 L0,5 Z" id="Combined-Shape" fill="#FF0000"></path>
                <text id="(2,1)" fill="#000000" fill-rule="nonzero" font-family="Helvetica" font-size="6" font-weight="normal">
                    <tspan x="9" y="6">(2,1)</tspan>
                </text>
            </g>
            <g transform="translate(700, 300)">
                <path d="M0,5 L4,0 L8,5 L6,5 L6,20 L2,20 L2,5 L0,5 Z" id="Combined-Shape" fill="#FF0000"></path>
                <text id="(2,2)" fill="#000000" fill-rule="nonzero" font-family="Helvetica" font-size="6" font-weight="normal">
                    <tspan x="9" y="6">(2,2)</tspan>
                </text>
            </g>
            <g transform="translate(700, 200)">
                <path d="M0,5 L4,0 L8,5 L6,5 L6,20 L2,20 L2,5 L0,5 Z" id="Combined-Shape" fill="#FF0000"></path>
                <text id="(2,3)" fill="#000000" fill-rule="nonzero" font-family="Helvetica" font-size="6" font-weight="normal">
                    <tspan x="9" y="6">(2,3)</tspan>
                </text>
            </g>
            <g transform="translate(700, 100)">
                <path d="M0,5 L4,0 L8,5 L6,5 L6,20 L2,20 L2,5 L0,5 Z" id="Combined-Shape" fill="#FF0000"></path>
                <text id="(2,4)" fill="#000000" fill-rule="nonzero" font-family="Helvetica" font-size="6" font-weight="normal">
                    <tspan x="9" y="6">(2,4)</tspan>
                </text>
            </g>
            <g transform="translate(700, 0)">
                <path d="M0,5 L4,0 L8,5 L6,5 L6,20 L2,20 L2,5 L0,5 Z" id="Combined-Shape" fill="#FF0000"></path>
                <text id="(2,5)" fill="#000000" fill-rule="nonzero" font-family="Helvetica" font-size="6" font-weight="normal">
                    <tspan x="9" y="6">(2,5)</tspan>
                </text>
            </g>
            <g transform="translate(800, 1000)">
                <path d="M0,5 L4,0 L8,5 L6,5 L6,20 L2,20 L2,5 L0,5 Z" id="Combined-Shape" fill="#FF0000"></path>
                <text id="(3,-5)" fill="#000000" fill-rule="nonzero" font-family="Helvetica" font-size="6" font-weight="normal">
                    <tspan x="9" y="6">(3,-5)</tspan>
                </text>
            </g>
            <g transform="translate(800, 900)">
                <path d="M0,5 L4,0 L8,5 L6,5 L6,20 L2,20 L2,5 L0,5 Z" id="Combined-Shape" fill="#FF0000"></path>
                <text id="(3,-4)" fill="#000000" fill-rule="nonzero" font-family="Helvetica" font-size="6" font-weight="normal">
                    <tspan x="9" y="6">(3,-4)</tspan>
                </text>
            </g>
            <g transform="translate(800, 800)">
                <path d="M0,5 L4,0 L8,5 L6,5 L6,20 L2,20 L2,5 L0,5 Z" id="Combined-Shape" fill="#FF0000"></path>
                <text id="(3,-3)" fill="#000000" fill-rule="nonzero" font-family="Helvetica" font-size="6" font-weight="normal">
                    <tspan x="9" y="6">(3,-3)</tspan>
                </text>
            </g>
            <g transform="translate(800, 700)">
                <path d="M0,5 L4,0 L8,5 L6,5 L6,20 L2,20 L2,5 L0,5 Z" id="Combined-Shape" fill="#FF0000"></path>
                <text id="(3,-2)" fill="#000000" fill-rule="nonzero" font-family="Helvetica" font-size="6" font-weight="normal">
                    <tspan x="9" y="6">(3,-2)</tspan>
                </text>
            </g>
            <g transform="translate(800, 600)">
                <path d="M0,5 L4,0 L8,5 L6,5 L6,20 L2,20 L2,5 L0,5 Z" id="Combined-Shape" fill="#FF0000"></path>
                <text id="(3,-1)" fill="#000000" fill-rule="nonzero" font-family="Helvetica" font-size="6" font-weight="normal">
                    <tspan x="9" y="6">(3,-1)</tspan>
                </text>
            </g>
            <g transform="translate(800, 500)">
                <path d="M0,5 L4,0 L8,5 L6,5 L6,20 L2,20 L2,5 L0,5 Z" id="Combined-Shape" fill="#FF0000"></path>
                <text id="(3,0)" fill="#000000" fill-rule="nonzero" font-family="Helvetica" font-size="6" font-weight="normal">
                    <tspan x="9" y="6">(3,0)</tspan>
                </text>
            </g>
            <g transform="translate(800, 400)">
                <path d="M0,5 L4,0 L8,5 L6,5 L6,20 L2,20 L2,5 L0,5 Z" id="Combined-Shape" fill="#FF0000"></path>
                <text id="(3,1)" fill="#000000" fill-rule="nonzero" font-family="Helvetica" font-size="6" font-weight="normal">
                    <tspan x="9" y="6">(3,1)</tspan>
                </text>
            </g>
            <g transform="translate(800, 300)">
                <path d="M0,5 L4,0 L8,5 L6,5 L6,20 L2,20 L2,5 L0,5 Z" id="Combined-Shape" fill="#FF0000"></path>
                <text id="(3,2)" fill="#000000" fill-rule="nonzero" font-family="Helvetica" font-size="6" font-weight="normal">
                    <tspan x="9" y="6">(3,2)</tspan>
                </text>
            </g>
            <g transform="translate(800, 200)">
                <path d="M0,5 L4,0 L8,5 L6,5 L6,20 L2,20 L2,5 L0,5 Z" id="Combined-Shape" fill="#FF0000"></path>
                <text id="(3,3)" fill="#000000" fill-rule="nonzero" font-family="Helvetica" font-size="6" font-weight="normal">
                    <tspan x="9" y="6">(3,3)</tspan>
                </text>
            </g>
            <g transform="translate(800, 100)">
                <path d="M0,5 L4,0 L8,5 L6,5 L6,20 L2,20 L2,5 L0,5 Z" id="Combined-Shape" fill="#FF0000"></path>
                <text id="(3,4)" fill="#000000" fill-rule="nonzero" font-family="Helvetica" font-size="6" font-weight="normal">
                    <tspan x="9" y="6">(3,4)</tspan>
                </text>
            </g>
            <g transform="translate(800, 0)">
                <path d="M0,5 L4,0 L8,5 L6,5 L6,20 L2,20 L2,5 L0,5 Z" id="Combined-Shape" fill="#FF0000"></path>
                <text id="(3,5)" fill="#000000" fill-rule="nonzero" font-family="Helvetica" font-size="6" font-weight="normal">
                    <tspan x="9" y="6">(3,5)</tspan>
                </text>
            </g>
            <g transform="translate(900, 1000)">
                <path d="M0,5 L4,0 L8,5 L6,5 L6,20 L2,20 L2,5 L0,5 Z" id="Combined-Shape" fill="#FF0000"></path>
                <text id="(4,-5)" fill="#000000" fill-rule="nonzero" font-family="Helvetica" font-size="6" font-weight="normal">
                    <tspan x="9" y="6">(4,-5)</tspan>
                </text>
            </g>
            <g transform="translate(900, 900)">
                <path d="M0,5 L4,0 L8,5 L6,5 L6,20 L2,20 L2,5 L0,5 Z" id="Combined-Shape" fill="#FF0000"></path>
                <text id="(4,-4)" fill="#000000" fill-rule="nonzero" font-family="Helvetica" font-size="6" font-weight="normal">
                    <tspan x="9" y="6">(4,-4)</tspan>
                </text>
            </g>
            <g transform="translate(900, 800)">
                <path d="M0,5 L4,0 L8,5 L6,5 L6,20 L2,20 L2,5 L0,5 Z" id="Combined-Shape" fill="#FF0000"></path>
                <text id="(4,-3)" fill="#000000" fill-rule="nonzero" font-family="Helvetica" font-size="6" font-weight="normal">
                    <tspan x="9" y="6">(4,-3)</tspan>
                </text>
            </g>
            <g transform="translate(900, 700)">
                <path d="M0,5 L4,0 L8,5 L6,5 L6,20 L2,20 L2,5 L0,5 Z" id="Combined-Shape" fill="#FF0000"></path>
                <text id="(4,-2)" fill="#000000" fill-rule="nonzero" font-family="Helvetica" font-size="6" font-weight="normal">
                    <tspan x="9" y="6">(4,-2)</tspan>
                </text>
            </g>
            <g transform="translate(900, 600)">
                <path d="M0,5 L4,0 L8,5 L6,5 L6,20 L2,20 L2,5 L0,5 Z" id="Combined-Shape" fill="#FF0000"></path>
                <text id="(4,-1)" fill="#000000" fill-rule="nonzero" font-family="Helvetica" font-size="6" font-weight="normal">
                    <tspan x="9" y="6">(4,-1)</tspan>
                </text>
            </g>
            <g transform="translate(900, 500)">
                <path d="M0,5 L4,0 L8,5 L6,5 L6,20 L2,20 L2,5 L0,5 Z" id="Combined-Shape" fill="#FF0000"></path>
                <text id="(4,0)" fill="#000000" fill-rule="nonzero" font-family="Helvetica" font-size="6" font-weight="normal">
                    <tspan x="9" y="6">(4,0)</tspan>
                </text>
            </g>
            <g transform="translate(900, 400)">
                <path d="M0,5 L4,0 L8,5 L6,5 L6,20 L2,20 L2,5 L0,5 Z" id="Combined-Shape" fill="#FF0000"></path>
                <text id="(4,1)" fill="#000000" fill-rule="nonzero" font-family="Helvetica" font-size="6" font-weight="normal">
                    <tspan x="9" y="6">(4,1)</tspan>
                </text>
            </g>
            <g transform="translate(900, 300)">
                <path d="M0,5 L4,0 L8,5 L6,5 L6,20 L2,20 L2,5 L0,5 Z" id="Combined-Shape" fill="#FF0000"></path>
                <text id="(4,2)" fill="#000000" fill-rule="nonzero" font-family="Helvetica" font-size="6" font-weight="normal">
                    <tspan x="9" y="6">(4,2)</tspan>
                </text>
            </g>
            <g transform="translate(900, 200)">
                <path d="M0,5 L4,0 L8,5 L6,5 L6,20 L2,20 L2,5 L0,5 Z" id="Combined-Shape" fill="#FF0000"></path>
                <text id="(4,3)" fill="#000000" fill-rule="nonzero" font-family="Helvetica" font-size="6" font-weight="normal">
                    <tspan x="9" y="6">(4,3)</tspan>
                </text>
            </g>
            <g transform="translate(900, 100)">
                <path d="M0,5 L4,0 L8,5 L6,5 L6,20 L2,20 L2,5 L0,5 Z" id="Combined-Shape" fill="#FF0000"></path>
                <text id="(4,4)" fill="#000000" fill-rule="nonzero" font-family="Helvetica" font-size="6" font-weight="normal">
                    <tspan x="9" y="6">(4,4)</tspan>
                </text>
            </g>
            <g transform="translate(900, 0)">
                <path d="M0,5 L4,0 L8,5 L6,5 L6,20 L2,20 L2,5 L0,5 Z" id="Combined-Shape" fill="#FF0000"></path>
                <text id="(4,5)" fill="#000000" fill-rule="nonzero" font-family="Helvetica" font-size="6" font-weight="normal">
                    <tspan x="9" y="6">(4,5)</tspan>
                </text>
            </g>
            <g transform="translate(1000, 1000)">
                <path d="M0,5 L4,0 L8,5 L6,5 L6,20 L2,20 L2,5 L0,5 Z" id="Combined-Shape" fill="#FF0000"></path>
                <text id="(5,-5)" fill="#000000" fill-rule="nonzero" font-family="Helvetica" font-size="6" font-weight="normal">
                    <tspan x="9" y="6">(5,-5)</tspan>
                </text>
            </g>
            <g transform="translate(1000, 900)">
                <path d="M0,5 L4,0 L8,5 L6,5 L6,20 L2,20 L2,5 L0,5 Z" id="Combined-Shape" fill="#FF0000"></path>
                <text id="(5,-4)" fill="#000000" fill-rule="nonzero" font-family="Helvetica" font-size="6" font-weight="normal">
                    <tspan x="9" y="6">(5,-4)</tspan>
                </text>
            </g>
            <g transform="translate(1000, 800)">
                <path d="M0,5 L4,0 L8,5 L6,5 L6,20 L2,20 L2,5 L0,5 Z" id="Combined-Shape" fill="#FF0000"></path>
                <text id="(5,-3)" fill="#000000" fill-rule="nonzero" font-family="Helvetica" font-size="6" font-weight="normal">
                    <tspan x="9" y="6">(5,-3)</tspan>
                </text>
            </g>
            <g transform="translate(1000, 700)">
                <path d="M0,5 L4,0 L8,5 L6,5 L6,20 L2,20 L2,5 L0,5 Z" id="Combined-Shape" fill="#FF0000"></path>
                <text id="(5,-2)" fill="#000000" fill-rule="nonzero" font-family="Helvetica" font-size="6" font-weight="normal">
                    <tspan x="9" y="6">(5,-2)</tspan>
                </text>
            </g>
            <g transform="translate(1000, 600)">
                <path d="M0,5 L4,0 L8,5 L6,5 L6,20 L2,20 L2,5 L0,5 Z" id="Combined-Shape" fill="#FF0000"></path>
                <text id="(5,-1)" fill="#000000" fill-rule="nonzero" font-family="Helvetica" font-size="6" font-weight="normal">
                    <tspan x="9" y="6">(5,-1)</tspan>
                </text>
            </g>
            <g transform="translate(1000, 500)">
                <path d="M0,5 L4,0 L8,5 L6,5 L6,20 L2,20 L2,5 L0,5 Z" id="Combined-Shape" fill="#FF0000"></path>
                <text id="(5,0)" fill="#000000" fill-rule="nonzero" font-family="Helvetica" font-size="6" font-weight="normal">
                    <tspan x="9" y="6">(5,0)</tspan>
                </text>
            </g>
            <g transform="translate(1000, 400)">
                <path d="M0,5 L4,0 L8,5 L6,5 L6,20 L2,20 L2,5 L0,5 Z" id="Combined-Shape" fill="#FF0000"></path>
                <text id="(5,1)" fill="#000000" fill-rule="nonzero" font-family="Helvetica" font-size="6" font-weight="normal">
                    <tspan x="9" y="6">(5,1)</tspan>
                </text>
            </g>
            <g transform="translate(1000, 300)">
                <path d="M0,5 L4,0 L8,5 L6,5 L6,20 L2,20 L2,5 L0,5 Z" id="Combined-Shape" fill="#FF0000"></path>
                <text id="(5,2)" fill="#000000" fill-rule="nonzero" font-family="Helvetica" font-size="6" font-weight="normal">
                    <tspan x="9" y="6">(5,2)</tspan>
                </text>
            </g>
            <g transform="translate(1000, 200)">
                <path d="M0,5 L4,0 L8,5 L6,5 L6,20 L2,20 L2,5 L0,5 Z" id="Combined-Shape" fill="#FF0000"></path>
                <text id="(5,3)" fill="#000000" fill-rule="nonzero" font-family="Helvetica" font-size="6" font-weight="normal">
                    <tspan x="9" y="6">(5,3)</tspan>
                </text>
            </g>
            <g transform="translate(1000, 100)">
                <path d="M0,5 L4,0 L8,5 L6,5 L6,20 L2,20 L2,5 L0,5 Z" id="Combined-Shape" fill="#FF0000"></path>
                <text id="(5,4)" fill="#000000" fill-rule="nonzero" font-family="Helvetica" font-size="6" font-weight="normal">
                    <tspan x="9" y="6">(5,4)</tspan>
                </text>
            </g>
            <g transform="translate(1000, 0)">
                <path d="M0,5 L4,0 L8,5 L6,5 L6,20 L2,20 L2,5 L0,5 Z" id="Combined-Shape" fill="#FF0000"></path>
                <text id="(5,5)" fill="#000000" fill-rule="nonzero" font-family="Helvetica" font-size="6" font-weight="normal">
                    <tspan x="9" y="6">(5,5)</tspan>
                </text>
            </g>
            <g transform="translate(0, 1000)">
                <path d="M0,5 L4,0 L8,5 L6,5 L6,20 L2,20 L2,5 L0,5 Z" id="Combined-Shape" fill="#FF0000"></path>
                <text id="(-5,-5)" fill="#000000" fill-rule="nonzero" font-family="Helvetica" font-size="6" font-weight="normal">
                    <tspan x="9" y="6">(-5,-5)</tspan>
                </text>
            </g>
            <g transform="translate(0, 900)">
                <path d="M0,5 L4,0 L8,5 L6,5 L6,20 L2,20 L2,5 L0,5 Z" id="Combined-Shape" fill="#FF0000"></path>
                <text id="(-5,-4)" fill="#000000" fill-rule="nonzero" font-family="Helvetica" font-size="6" font-weight="normal">
                    <tspan x="9" y="6">(-5,-4)</tspan>
                </text>
            </g>
            <g transform="translate(0, 800)">
                <path d="M0,5 L4,0 L8,5 L6,5 L6,20 L2,20 L2,5 L0,5 Z" id="Combined-Shape" fill="#FF0000"></path>
                <text id="(-5,-3)" fill="#000000" fill-rule="nonzero" font-family="Helvetica" font-size="6" font-weight="normal">
                    <tspan x="9" y="6">(-5,-3)</tspan>
                </text>
            </g>
            <g transform="translate(0, 700)">
                <path d="M0,5 L4,0 L8,5 L6,5 L6,20 L2,20 L2,5 L0,5 Z" id="Combined-Shape" fill="#FF0000"></path>
                <text id="(-5,-2)" fill="#000000" fill-rule="nonzero" font-family="Helvetica" font-size="6" font-weight="normal">
                    <tspan x="9" y="6">(-5,-2)</tspan>
                </text>
            </g>
            <g transform="translate(0, 600)">
                <path d="M0,5 L4,0 L8,5 L6,5 L6,20 L2,20 L2,5 L0,5 Z" id="Combined-Shape" fill="#FF0000"></path>
                <text id="(-5,-1)" fill="#000000" fill-rule="nonzero" font-family="Helvetica" font-size="6" font-weight="normal">
                    <tspan x="9" y="6">(-5,-1)</tspan>
                </text>
            </g>
            <g transform="translate(0, 500)">
                <path d="M0,5 L4,0 L8,5 L6,5 L6,20 L2,20 L2,5 L0,5 Z" id="Combined-Shape" fill="#FF0000"></path>
                <text id="(-5,0)" fill="#000000" fill-rule="nonzero" font-family="Helvetica" font-size="6" font-weight="normal">
                    <tspan x="9" y="6">(-5,0)</tspan>
                </text>
            </g>
            <g transform="translate(0, 400)">
                <path d="M0,5 L4,0 L8,5 L6,5 L6,20 L2,20 L2,5 L0,5 Z" id="Combined-Shape" fill="#FF0000"></path>
                <text id="(-5,1)" fill="#000000" fill-rule="nonzero" font-family="Helvetica" font-size="6" font-weight="normal">
                    <tspan x="9" y="6">(-5,1)</tspan>
                </text>
            </g>
            <g transform="translate(0, 300)">
                <path d="M0,5 L4,0 L8,5 L6,5 L6,20 L2,20 L2,5 L0,5 Z" id="Combined-Shape" fill="#FF0000"></path>
                <text id="(-5,2)" fill="#000000" fill-rule="nonzero" font-family="Helvetica" font-size="6" font-weight="normal">
                    <tspan x="9" y="6">(-5,2)</tspan>
                </text>
            </g>
            <g transform="translate(0, 200)">
                <path d="M0,5 L4,0 L8,5 L6,5 L6,20 L2,20 L2,5 L0,5 Z" id="Combined-Shape" fill="#FF0000"></path>
                <text id="(-5,3)" fill="#000000" fill-rule="nonzero" font-family="Helvetica" font-size="6" font-weight="normal">
                    <tspan x="9" y="6">(-5,3)</tspan>
                </text>
            </g>
            <g transform="translate(0, 100)">
                <path d="M0,5 L4,0 L8,5 L6,5 L6,20 L2,20 L2,5 L0,5 Z" id="Combined-Shape" fill="#FF0000"></path>
                <text id="(-5,4)" fill="#000000" fill-rule="nonzero" font-family="Helvetica" font-size="6" font-weight="normal">
                    <tspan x="9" y="6">(-5,4)</tspan>
                </text>
            </g>
            <g>
                <path d="M0,5 L4,0 L8,5 L6,5 L6,20 L2,20 L2,5 L0,5 Z" id="Combined-Shape" fill="#FF0000"></path>
                <text id="(-5,5)" fill="#000000" fill-rule="nonzero" font-family="Helvetica" font-size="6" font-weight="normal">
                    <tspan x="9" y="6">(-5,5)</tspan>
                </text>
            </g>
            <g transform="translate(100, 1000)">
                <path d="M0,5 L4,0 L8,5 L6,5 L6,20 L2,20 L2,5 L0,5 Z" id="Combined-Shape" fill="#FF0000"></path>
                <text id="(-4,-5)" fill="#000000" fill-rule="nonzero" font-family="Helvetica" font-size="6" font-weight="normal">
                    <tspan x="9" y="6">(-4,-5)</tspan>
                </text>
            </g>
            <g transform="translate(100, 900)">
                <path d="M0,5 L4,0 L8,5 L6,5 L6,20 L2,20 L2,5 L0,5 Z" id="Combined-Shape" fill="#FF0000"></path>
                <text id="(-4,-4)" fill="#000000" fill-rule="nonzero" font-family="Helvetica" font-size="6" font-weight="normal">
                    <tspan x="9" y="6">(-4,-4)</tspan>
                </text>
            </g>
            <g transform="translate(100, 800)">
                <path d="M0,5 L4,0 L8,5 L6,5 L6,20 L2,20 L2,5 L0,5 Z" id="Combined-Shape" fill="#FF0000"></path>
                <text id="(-4,-3)" fill="#000000" fill-rule="nonzero" font-family="Helvetica" font-size="6" font-weight="normal">
                    <tspan x="9" y="6">(-4,-3)</tspan>
                </text>
            </g>
            <g transform="translate(100, 700)">
                <path d="M0,5 L4,0 L8,5 L6,5 L6,20 L2,20 L2,5 L0,5 Z" id="Combined-Shape" fill="#FF0000"></path>
                <text id="(-4,-2)" fill="#000000" fill-rule="nonzero" font-family="Helvetica" font-size="6" font-weight="normal">
                    <tspan x="9" y="6">(-4,-2)</tspan>
                </text>
            </g>
            <g transform="translate(100, 600)">
                <path d="M0,5 L4,0 L8,5 L6,5 L6,20 L2,20 L2,5 L0,5 Z" id="Combined-Shape" fill="#FF0000"></path>
                <text id="(-4,-1)" fill="#000000" fill-rule="nonzero" font-family="Helvetica" font-size="6" font-weight="normal">
                    <tspan x="9" y="6">(-4,-1)</tspan>
                </text>
            </g>
            <g transform="translate(100, 500)">
                <path d="M0,5 L4,0 L8,5 L6,5 L6,20 L2,20 L2,5 L0,5 Z" id="Combined-Shape" fill="#FF0000"></path>
                <text id="(-4,0)" fill="#000000" fill-rule="nonzero" font-family="Helvetica" font-size="6" font-weight="normal">
                    <tspan x="9" y="6">(-4,0)</tspan>
                </text>
            </g>
            <g transform="translate(100, 400)">
                <path d="M0,5 L4,0 L8,5 L6,5 L6,20 L2,20 L2,5 L0,5 Z" id="Combined-Shape" fill="#FF0000"></path>
                <text id="(-4,1)" fill="#000000" fill-rule="nonzero" font-family="Helvetica" font-size="6" font-weight="normal">
                    <tspan x="9" y="6">(-4,1)</tspan>
                </text>
            </g>
            <g transform="translate(100, 300)">
                <path d="M0,5 L4,0 L8,5 L6,5 L6,20 L2,20 L2,5 L0,5 Z" id="Combined-Shape" fill="#FF0000"></path>
                <text id="(-4,2)" fill="#000000" fill-rule="nonzero" font-family="Helvetica" font-size="6" font-weight="normal">
                    <tspan x="9" y="6">(-4,2)</tspan>
                </text>
            </g>
            <g transform="translate(100, 200)">
                <path d="M0,5 L4,0 L8,5 L6,5 L6,20 L2,20 L2,5 L0,5 Z" id="Combined-Shape" fill="#FF0000"></path>
                <text id="(-4,3)" fill="#000000" fill-rule="nonzero" font-family="Helvetica" font-size="6" font-weight="normal">
                    <tspan x="9" y="6">(-4,3)</tspan>
                </text>
            </g>
            <g transform="translate(100, 100)">
                <path d="M0,5 L4,0 L8,5 L6,5 L6,20 L2,20 L2,5 L0,5 Z" id="Combined-Shape" fill="#FF0000"></path>
                <text id="(-4,4)" fill="#000000" fill-rule="nonzero" font-family="Helvetica" font-size="6" font-weight="normal">
                    <tspan x="9" y="6">(-4,4)</tspan>
                </text>
            </g>
            <g transform="translate(100, 0)">
                <path d="M0,5 L4,0 L8,5 L6,5 L6,20 L2,20 L2,5 L0,5 Z" id="Combined-Shape" fill="#FF0000"></path>
                <text id="(-4,5)" fill="#000000" fill-rule="nonzero" font-family="Helvetica" font-size="6" font-weight="normal">
                    <tspan x="9" y="6">(-4,5)</tspan>
                </text>
            </g>
            <g transform="translate(200, 1000)">
                <path d="M0,5 L4,0 L8,5 L6,5 L6,20 L2,20 L2,5 L0,5 Z" id="Combined-Shape" fill="#FF0000"></path>
                <text id="(-3,-5)" fill="#000000" fill-rule="nonzero" font-family="Helvetica" font-size="6" font-weight="normal">
                    <tspan x="9" y="6">(-3,-5)</tspan>
                </text>
            </g>
            <g transform="translate(200, 900)">
                <path d="M0,5 L4,0 L8,5 L6,5 L6,20 L2,20 L2,5 L0,5 Z" id="Combined-Shape" fill="#FF0000"></path>
                <text id="(-3,-4)" fill="#000000" fill-rule="nonzero" font-family="Helvetica" font-size="6" font-weight="normal">
                    <tspan x="9" y="6">(-3,-4)</tspan>
                </text>
            </g>
            <g transform="translate(200, 800)">
                <path d="M0,5 L4,0 L8,5 L6,5 L6,20 L2,20 L2,5 L0,5 Z" id="Combined-Shape" fill="#FF0000"></path>
                <text id="(-3,-3)" fill="#000000" fill-rule="nonzero" font-family="Helvetica" font-size="6" font-weight="normal">
                    <tspan x="9" y="6">(-3,-3)</tspan>
                </text>
            </g>
            <g transform="translate(200, 700)">
                <path d="M0,5 L4,0 L8,5 L6,5 L6,20 L2,20 L2,5 L0,5 Z" id="Combined-Shape" fill="#FF0000"></path>
                <text id="(-3,-2)" fill="#000000" fill-rule="nonzero" font-family="Helvetica" font-size="6" font-weight="normal">
                    <tspan x="9" y="6">(-3,-2)</tspan>
                </text>
            </g>
            <g transform="translate(200, 600)">
                <path d="M0,5 L4,0 L8,5 L6,5 L6,20 L2,20 L2,5 L0,5 Z" id="Combined-Shape" fill="#FF0000"></path>
                <text id="(-3,-1)" fill="#000000" fill-rule="nonzero" font-family="Helvetica" font-size="6" font-weight="normal">
                    <tspan x="9" y="6">(-3,-1)</tspan>
                </text>
            </g>
            <g transform="translate(200, 500)">
                <path d="M0,5 L4,0 L8,5 L6,5 L6,20 L2,20 L2,5 L0,5 Z" id="Combined-Shape" fill="#FF0000"></path>
                <text id="(-3,0)" fill="#000000" fill-rule="nonzero" font-family="Helvetica" font-size="6" font-weight="normal">
                    <tspan x="9" y="6">(-3,0)</tspan>
                </text>
            </g>
            <g transform="translate(200, 400)">
                <path d="M0,5 L4,0 L8,5 L6,5 L6,20 L2,20 L2,5 L0,5 Z" id="Combined-Shape" fill="#FF0000"></path>
                <text id="(-3,1)" fill="#000000" fill-rule="nonzero" font-family="Helvetica" font-size="6" font-weight="normal">
                    <tspan x="9" y="6">(-3,1)</tspan>
                </text>
            </g>
            <g transform="translate(200, 300)">
                <path d="M0,5 L4,0 L8,5 L6,5 L6,20 L2,20 L2,5 L0,5 Z" id="Combined-Shape" fill="#FF0000"></path>
                <text id="(-3,2)" fill="#000000" fill-rule="nonzero" font-family="Helvetica" font-size="6" font-weight="normal">
                    <tspan x="9" y="6">(-3,2)</tspan>
                </text>
            </g>
            <g transform="translate(200, 200)">
                <path d="M0,5 L4,0 L8,5 L6,5 L6,20 L2,20 L2,5 L0,5 Z" id="Combined-Shape" fill="#FF0000"></path>
                <text id="(-3,3)" fill="#000000" fill-rule="nonzero" font-family="Helvetica" font-size="6" font-weight="normal">
                    <tspan x="9" y="6">(-3,3)</tspan>
                </text>
            </g>
            <g transform="translate(200, 100)">
                <path d="M0,5 L4,0 L8,5 L6,5 L6,20 L2,20 L2,5 L0,5 Z" id="Combined-Shape" fill="#FF0000"></path>
                <text id="(-3,4)" fill="#000000" fill-rule="nonzero" font-family="Helvetica" font-size="6" font-weight="normal">
                    <tspan x="9" y="6">(-3,4)</tspan>
                </text>
            </g>
            <g transform="translate(200, 0)">
                <path d="M0,5 L4,0 L8,5 L6,5 L6,20 L2,20 L2,5 L0,5 Z" id="Combined-Shape" fill="#FF0000"></path>
                <text id="(-3,5)" fill="#000000" fill-rule="nonzero" font-family="Helvetica" font-size="6" font-weight="normal">
                    <tspan x="9" y="6">(-3,5)</tspan>
                </text>
            </g>
            <g transform="translate(300, 1000)">
                <path d="M0,5 L4,0 L8,5 L6,5 L6,20 L2,20 L2,5 L0,5 Z" id="Combined-Shape" fill="#FF0000"></path>
                <text id="(-2,-5)" fill="#000000" fill-rule="nonzero" font-family="Helvetica" font-size="6" font-weight="normal">
                    <tspan x="9" y="6">(-2,-5)</tspan>
                </text>
            </g>
            <g transform="translate(300, 900)">
                <path d="M0,5 L4,0 L8,5 L6,5 L6,20 L2,20 L2,5 L0,5 Z" id="Combined-Shape" fill="#FF0000"></path>
                <text id="(-2,-4)" fill="#000000" fill-rule="nonzero" font-family="Helvetica" font-size="6" font-weight="normal">
                    <tspan x="9" y="6">(-2,-4)</tspan>
                </text>
            </g>
            <g transform="translate(300, 800)">
                <path d="M0,5 L4,0 L8,5 L6,5 L6,20 L2,20 L2,5 L0,5 Z" id="Combined-Shape" fill="#FF0000"></path>
                <text id="(-2,-3)" fill="#000000" fill-rule="nonzero" font-family="Helvetica" font-size="6" font-weight="normal">
                    <tspan x="9" y="6">(-2,-3)</tspan>
                </text>
            </g>
            <g transform="translate(300, 700)">
                <path d="M0,5 L4,0 L8,5 L6,5 L6,20 L2,20 L2,5 L0,5 Z" id="Combined-Shape" fill="#FF0000"></path>
                <text id="(-2,-2)" fill="#000000" fill-rule="nonzero" font-family="Helvetica" font-size="6" font-weight="normal">
                    <tspan x="9" y="6">(-2,-2)</tspan>
                </text>
            </g>
            <g transform="translate(300, 600)">
                <path d="M0,5 L4,0 L8,5 L6,5 L6,20 L2,20 L2,5 L0,5 Z" id="Combined-Shape" fill="#FF0000"></path>
                <text id="(-2,-1)" fill="#000000" fill-rule="nonzero" font-family="Helvetica" font-size="6" font-weight="normal">
                    <tspan x="9" y="6">(-2,-1)</tspan>
                </text>
            </g>
            <g transform="translate(300, 500)">
                <path d="M0,5 L4,0 L8,5 L6,5 L6,20 L2,20 L2,5 L0,5 Z" id="Combined-Shape" fill="#FF0000"></path>
                <text id="(-2,0)" fill="#000000" fill-rule="nonzero" font-family="Helvetica" font-size="6" font-weight="normal">
                    <tspan x="9" y="6">(-2,0)</tspan>
                </text>
            </g>
            <g transform="translate(300, 400)">
                <path d="M0,5 L4,0 L8,5 L6,5 L6,20 L2,20 L2,5 L0,5 Z" id="Combined-Shape" fill="#FF0000"></path>
                <text id="(-2,1)" fill="#000000" fill-rule="nonzero" font-family="Helvetica" font-size="6" font-weight="normal">
                    <tspan x="9" y="6">(-2,1)</tspan>
                </text>
            </g>
            <g transform="translate(300, 300)">
                <path d="M0,5 L4,0 L8,5 L6,5 L6,20 L2,20 L2,5 L0,5 Z" id="Combined-Shape" fill="#FF0000"></path>
                <text id="(-2,2)" fill="#000000" fill-rule="nonzero" font-family="Helvetica" font-size="6" font-weight="normal">
                    <tspan x="9" y="6">(-2,2)</tspan>
                </text>
            </g>
            <g transform="translate(300, 200)">
                <path d="M0,5 L4,0 L8,5 L6,5 L6,20 L2,20 L2,5 L0,5 Z" id="Combined-Shape" fill="#FF0000"></path>
                <text id="(-2,3)" fill="#000000" fill-rule="nonzero" font-family="Helvetica" font-size="6" font-weight="normal">
                    <tspan x="9" y="6">(-2,3)</tspan>
                </text>
            </g>
            <g transform="translate(300, 100)">
                <path d="M0,5 L4,0 L8,5 L6,5 L6,20 L2,20 L2,5 L0,5 Z" id="Combined-Shape" fill="#FF0000"></path>
                <text id="(-2,4)" fill="#000000" fill-rule="nonzero" font-family="Helvetica" font-size="6" font-weight="normal">
                    <tspan x="9" y="6">(-2,4)</tspan>
                </text>
            </g>
            <g transform="translate(300, 0)">
                <path d="M0,5 L4,0 L8,5 L6,5 L6,20 L2,20 L2,5 L0,5 Z" id="Combined-Shape" fill="#FF0000"></path>
                <text id="(-2,5)" fill="#000000" fill-rule="nonzero" font-family="Helvetica" font-size="6" font-weight="normal">
                    <tspan x="9" y="6">(-2,5)</tspan>
                </text>
            </g>
            <g transform="translate(400, 1000)">
                <path d="M0,5 L4,0 L8,5 L6,5 L6,20 L2,20 L2,5 L0,5 Z" id="Combined-Shape" fill="#FF0000"></path>
                <text id="(-1,-5)" fill="#000000" fill-rule="nonzero" font-family="Helvetica" font-size="6" font-weight="normal">
                    <tspan x="9" y="6">(-1,-5)</tspan>
                </text>
            </g>
            <g transform="translate(400, 900)">
                <path d="M0,5 L4,0 L8,5 L6,5 L6,20 L2,20 L2,5 L0,5 Z" id="Combined-Shape" fill="#FF0000"></path>
                <text id="(-1,-4)" fill="#000000" fill-rule="nonzero" font-family="Helvetica" font-size="6" font-weight="normal">
                    <tspan x="9" y="6">(-1,-4)</tspan>
                </text>
            </g>
            <g transform="translate(400, 800)">
                <path d="M0,5 L4,0 L8,5 L6,5 L6,20 L2,20 L2,5 L0,5 Z" id="Combined-Shape" fill="#FF0000"></path>
                <text id="(-1,-3)" fill="#000000" fill-rule="nonzero" font-family="Helvetica" font-size="6" font-weight="normal">
                    <tspan x="9" y="6">(-1,-3)</tspan>
                </text>
            </g>
            <g transform="translate(400, 700)">
                <path d="M0,5 L4,0 L8,5 L6,5 L6,20 L2,20 L2,5 L0,5 Z" id="Combined-Shape" fill="#FF0000"></path>
                <text id="(-1,-2)" fill="#000000" fill-rule="nonzero" font-family="Helvetica" font-size="6" font-weight="normal">
                    <tspan x="9" y="6">(-1,-2)</tspan>
                </text>
            </g>
            <g transform="translate(400, 600)">
                <path d="M0,5 L4,0 L8,5 L6,5 L6,20 L2,20 L2,5 L0,5 Z" id="Combined-Shape" fill="#FF0000"></path>
                <text id="(-1,-1)" fill="#000000" fill-rule="nonzero" font-family="Helvetica" font-size="6" font-weight="normal">
                    <tspan x="9" y="6">(-1,-1)</tspan>
                </text>
            </g>
            <g transform="translate(400, 500)">
                <path d="M0,5 L4,0 L8,5 L6,5 L6,20 L2,20 L2,5 L0,5 Z" id="Combined-Shape" fill="#FF0000"></path>
                <text id="(-1,0)" fill="#000000" fill-rule="nonzero" font-family="Helvetica" font-size="6" font-weight="normal">
                    <tspan x="9" y="6">(-1,0)</tspan>
                </text>
            </g>
            <g transform="translate(400, 400)">
                <path d="M0,5 L4,0 L8,5 L6,5 L6,20 L2,20 L2,5 L0,5 Z" id="Combined-Shape" fill="#FF0000"></path>
                <text id="(-1,1)" fill="#000000" fill-rule="nonzero" font-family="Helvetica" font-size="6" font-weight="normal">
                    <tspan x="9" y="6">(-1,1)</tspan>
                </text>
            </g>
            <g transform="translate(400, 300)">
                <path d="M0,5 L4,0 L8,5 L6,5 L6,20 L2,20 L2,5 L0,5 Z" id="Combined-Shape" fill="#FF0000"></path>
                <text id="(-1,2)" fill="#000000" fill-rule="nonzero" font-family="Helvetica" font-size="6" font-weight="normal">
                    <tspan x="9" y="6">(-1,2)</tspan>
                </text>
            </g>
            <g transform="translate(400, 200)">
                <path d="M0,5 L4,0 L8,5 L6,5 L6,20 L2,20 L2,5 L0,5 Z" id="Combined-Shape" fill="#FF0000"></path>
                <text id="(-1,3)" fill="#000000" fill-rule="nonzero" font-family="Helvetica" font-size="6" font-weight="normal">
                    <tspan x="9" y="6">(-1,3)</tspan>
                </text>
            </g>
            <g transform="translate(400, 100)">
                <path d="M0,5 L4,0 L8,5 L6,5 L6,20 L2,20 L2,5 L0,5 Z" id="Combined-Shape" fill="#FF0000"></path>
                <text id="(-1,4)" fill="#000000" fill-rule="nonzero" font-family="Helvetica" font-size="6" font-weight="normal">
                    <tspan x="9" y="6">(-1,4)</tspan>
                </text>
            </g>
            <g transform="translate(400, 0)">
                <path d="M0,5 L4,0 L8,5 L6,5 L6,20 L2,20 L2,5 L0,5 Z" id="Combined-Shape" fill="#FF0000"></path>
                <text id="(-1,5)" fill="#000000" fill-rule="nonzero" font-family="Helvetica" font-size="6" font-weight="normal">
                    <tspan x="9" y="6">(-1,5)</tspan>
                </text>
            </g>
        </g>
    </g>
</svg>