<?xml version="1.0" encoding="UTF-8"?>
<svg width="1100px" height="1100px" viewBox="0 0 1100 1100" version="1.1" xmlns="http://www.w3.org/2000/svg" xmlns:xlink="http://www.w3.org/1999/xlink">
    <title>TestMap</title>
    <g id="TestMap" stroke="none" stroke-width="1" fill="none" fill-rule="evenodd">
        <g>
            <g id="MilePoint" transform="translate(546, 1040)">
                <path d="M0,5 L4,0 L8,5 L6,5 L6,20 L2,20 L2,5 L0,5 Z" id="Combined-Shape" fill="#FF0000"></path>
                <text id="(0,-5)" fill="#000000" fill-rule="nonzero" font-family="Helvetica" font-size="6" font-weight="normal">
                    <tspan x="9" y="6">(0,-5)</tspan>
                </text>
            </g>
            <g id="MilePoint" transform="translate(546, 940)">
                <path d="M0,5 L4,0 L8,5 L6,5 L6,20 L2,20 L2,5 L0,5 Z" id="Combined-Shape" fill="#FF0000"></path>
                <text id="(0,-4)" fill="#000000" fill-rule="nonzero" font-family="Helvetica" font-size="6" font-weight="normal">
                    <tspan x="9" y="6">(0,-4)</tspan>
                </text>
            </g>
            <g id="MilePoint" transform="translate(546, 840)">
                <path d="M0,5 L4,0 L8,5 L6,5 L6,20 L2,20 L2,5 L0,5 Z" id="Combined-Shape" fill="#FF0000"></path>
                <text id="(0,-3)" fill="#000000" fill-rule="nonzero" font-family="Helvetica" font-size="6" font-weight="normal">
                    <tspan x="9" y="6">(0,-3)</tspan>
                </text>
            </g>
            <g id="MilePoint" transform="translate(546, 740)">
                <path d="M0,5 L4,0 L8,5 L6,5 L6,20 L2,20 L2,5 L0,5 Z" id="Combined-Shape" fill="#FF0000"></path>
                <text id="(0,-2)" fill="#000000" fill-rule="nonzero" font-family="Helvetica" font-size="6" font-weight="normal">
                    <tspan x="9" y="6">(0,-2)</tspan>
                </text>
            </g>
            <g id="MilePoint" transform="translate(546, 640)">
                <path d="M0,5 L4,0 L8,5 L6,5 L6,20 L2,20 L2,5 L0,5 Z" id="Combined-Shape" fill="#FF0000"></path>
                <text id="(0,-1)" fill="#000000" fill-rule="nonzero" font-family="Helvetica" font-size="6" font-weight="normal">
                    <tspan x="9" y="6">(0,-1)</tspan>
                </text>
            </g>
            <g id="MilePoint" transform="translate(546, 540)">
                <path d="M0,5 L4,0 L8,5 L6,5 L6,20 L2,20 L2,5 L0,5 Z" id="Combined-Shape" fill="#0000FF"></path>
                <text id="(0,0)" fill="#000000" fill-rule="nonzero" font-family="Helvetica" font-size="6" font-weight="normal">
                    <tspan x="9" y="6">(0,0)</tspan>
                </text>
            </g>
            <g id="MilePoint" transform="translate(546, 440)">
                <path d="M0,5 L4,0 L8,5 L6,5 L6,20 L2,20 L2,5 L0,5 Z" id="Combined-Shape" fill="#FF0000"></path>
                <text id="(0,1)" fill="#000000" fill-rule="nonzero" font-family="Helvetica" font-size="6" font-weight="normal">
                    <tspan x="9" y="6">(0,1)</tspan>
                </text>
            </g>
            <g id="MilePoint" transform="translate(546, 340)">
                <path d="M0,5 L4,0 L8,5 L6,5 L6,20 L2,20 L2,5 L0,5 Z" id="Combined-Shape" fill="#FF0000"></path>
                <text id="(0,2)" fill="#000000" fill-rule="nonzero" font-family="Helvetica" font-size="6" font-weight="normal">
                    <tspan x="9" y="6">(0,2)</tspan>
                </text>
            </g>
            <g id="MilePoint" transform="translate(546, 240)">
                <path d="M0,5 L4,0 L8,5 L6,5 L6,20 L2,20 L2,5 L0,5 Z" id="Combined-Shape" fill="#FF0000"></path>
                <text id="(0,3)" fill="#000000" fill-rule="nonzero" font-family="Helvetica" font-size="6" font-weight="normal">
                    <tspan x="9" y="6">(0,3)</tspan>
                </text>
            </g>
            <g id="MilePoint" transform="translate(546, 140)">
                <path d="M0,5 L4,0 L8,5 L6,5 L6,20 L2,20 L2,5 L0,5 Z" id="Combined-Shape" fill="#FF0000"></path>
                <text id="(0,4)" fill="#000000" fill-rule="nonzero" font-family="Helvetica" font-size="6" font-weight="normal">
                    <tspan x="9" y="6">(0,4)</tspan>
                </text>
            </g>
            <g id="MilePoint" transform="translate(546, 40)">
                <path d="M0,5 L4,0 L8,5 L6,5 L6,20 L2,20 L2,5 L0,5 Z" id="Combined-Shape" fill="#FF0000"></path>
                <text id="(0,5)" fill="#000000" fill-rule="nonzero" font-family="Helvetica" font-size="6" font-weight="normal">
                    <tspan x="9" y="6">(0,5)</tspan>
                </text>
            </g>
            <g id="MilePoint" transform="translate(646, 1040)">
                <path d="M0,5 L4,0 L8,5 L6,5 L6,20 L2,20 L2,5 L0,5 Z" id="Combined-Shape" fill="#FF0000"></path>
                <text id="(1,-5)" fill="#000000" fill-rule="nonzero" font-family="Helvetica" font-size="6" font-weight="normal">
                    <tspan x="9" y="6">(1,-5)</tspan>
                </text>
            </g>
            <g id="MilePoint" transform="translate(646, 940)">
                <path d="M0,5 L4,0 L8,5 L6,5 L6,20 L2,20 L2,5 L0,5 Z" id="Combined-Shape" fill="#FF0000"></path>
                <text id="(1,-4)" fill="#000000" fill-rule="nonzero" font-family="Helvetica" font-size="6" font-weight="normal">
                    <tspan x="9" y="6">(1,-4)</tspan>
                </text>
            </g>
            <g id="MilePoint" transform="translate(646, 840)">
                <path d="M0,5 L4,0 L8,5 L6,5 L6,20 L2,20 L2,5 L0,5 Z" id="Combined-Shape" fill="#FF0000"></path>
                <text id="(1,-3)" fill="#000000" fill-rule="nonzero" font-family="Helvetica" font-size="6" font-weight="normal">
                    <tspan x="9" y="6">(1,-3)</tspan>
                </text>
            </g>
            <g id="MilePoint" transform="translate(646, 740)">
                <path d="M0,5 L4,0 L8,5 L6,5 L6,20 L2,20 L2,5 L0,5 Z" id="Combined-Shape" fill="#FF0000"></path>
                <text id="(1,-2)" fill="#000000" fill-rule="nonzero" font-family="Helvetica" font-size="6" font-weight="normal">
                    <tspan x="9" y="6">(1,-2)</tspan>
                </text>
            </g>
            <g id="MilePoint" transform="translate(646, 640)">
                <path d="M0,5 L4,0 L8,5 L6,5 L6,20 L2,20 L2,5 L0,5 Z" id="Combined-Shape" fill="#FF0000"></path>
                <text id="(1,-1)" fill="#000000" fill-rule="nonzero" font-family="Helvetica" font-size="6" font-weight="normal">
                    <tspan x="9" y="6">(1,-1)</tspan>
                </text>
            </g>
            <g id="MilePoint" transform="translate(646, 540)">
                <path d="M0,5 L4,0 L8,5 L6,5 L6,20 L2,20 L2,5 L0,5 Z" id="Combined-Shape" fill="#FF0000"></path>
                <text id="(1,0)" fill="#000000" fill-rule="nonzero" font-family="Helvetica" font-size="6" font-weight="normal">
                    <tspan x="9" y="6">(1,0)</tspan>
                </text>
            </g>
            <g id="MilePoint" transform="translate(646, 440)">
                <path d="M0,5 L4,0 L8,5 L6,5 L6,20 L2,20 L2,5 L0,5 Z" id="Combined-Shape" fill="#FF0000"></path>
                <text id="(1,1)" fill="#000000" fill-rule="nonzero" font-family="Helvetica" font-size="6" font-weight="normal">
                    <tspan x="9" y="6">(1,1)</tspan>
                </text>
            </g>
            <g id="MilePoint" transform="translate(646, 340)">
                <path d="M0,5 L4,0 L8,5 L6,5 L6,20 L2,20 L2,5 L0,5 Z" id="Combined-Shape" fill="#FF0000"></path>
                <text id="(1,2)" fill="#000000" fill-rule="nonzero" font-family="Helvetica" font-size="6" font-weight="normal">
                    <tspan x="9" y="6">(1,2)</tspan>
                </text>
            </g>
            <g id="MilePoint" transform="translate(646, 240)">
                <path d="M0,5 L4,0 L8,5 L6,5 L6,20 L2,20 L2,5 L0,5 Z" id="Combined-Shape" fill="#FF0000"></path>
                <text id="(1,3)" fill="#000000" fill-rule="nonzero" font-family="Helvetica" font-size="6" font-weight="normal">
                    <tspan x="9" y="6">(1,3)</tspan>
                </text>
            </g>
            <g id="MilePoint" transform="translate(646, 140)">
                <path d="M0,5 L4,0 L8,5 L6,5 L6,20 L2,20 L2,5 L0,5 Z" id="Combined-Shape" fill="#FF0000"></path>
                <text id="(1,4)" fill="#000000" fill-rule="nonzero" font-family="Helvetica" font-size="6" font-weight="normal">
                    <tspan x="9" y="6">(1,4)</tspan>
                </text>
            </g>
            <g id="MilePoint" transform="translate(646, 40)">
                <path d="M0,5 L4,0 L8,5 L6,5 L6,20 L2,20 L2,5 L0,5 Z" id="Combined-Shape" fill="#FF0000"></path>
                <text id="(1,5)" fill="#000000" fill-rule="nonzero" font-family="Helvetica" font-size="6" font-weight="normal">
                    <tspan x="9" y="6">(1,5)</tspan>
                </text>
            </g>
            <g id="MilePoint" transform="translate(746, 1040)">
                <path d="M0,5 L4,0 L8,5 L6,5 L6,20 L2,20 L2,5 L0,5 Z" id="Combined-Shape" fill="#FF0000"></path>
                <text id="(2,-5)" fill="#000000" fill-rule="nonzero" font-family="Helvetica" font-size="6" font-weight="normal">
                    <tspan x="9" y="6">(2,-5)</tspan>
                </text>
            </g>
            <g id="MilePoint" transform="translate(746, 940)">
                <path d="M0,5 L4,0 L8,5 L6,5 L6,20 L2,20 L2,5 L0,5 Z" id="Combined-Shape" fill="#FF0000"></path>
                <text id="(2,-4)" fill="#000000" fill-rule="nonzero" font-family="Helvetica" font-size="6" font-weight="normal">
                    <tspan x="9" y="6">(2,-4)</tspan>
                </text>
            </g>
            <g id="MilePoint" transform="translate(746, 840)">
                <path d="M0,5 L4,0 L8,5 L6,5 L6,20 L2,20 L2,5 L0,5 Z" id="Combined-Shape" fill="#FF0000"></path>
                <text id="(2,-3)" fill="#000000" fill-rule="nonzero" font-family="Helvetica" font-size="6" font-weight="normal">
                    <tspan x="9" y="6">(2,-3)</tspan>
                </text>
            </g>
            <g id="MilePoint" transform="translate(746, 740)">
                <path d="M0,5 L4,0 L8,5 L6,5 L6,20 L2,20 L2,5 L0,5 Z" id="Combined-Shape" fill="#FF0000"></path>
                <text id="(2,-2)" fill="#000000" fill-rule="nonzero" font-family="Helvetica" font-size="6" font-weight="normal">
                    <tspan x="9" y="6">(2,-2)</tspan>
                </text>
            </g>
            <g id="MilePoint" transform="translate(746, 640)">
                <path d="M0,5 L4,0 L8,5 L6,5 L6,20 L2,20 L2,5 L0,5 Z" id="Combined-Shape" fill="#FF0000"></path>
                <text id="(2,-1)" fill="#000000" fill-rule="nonzero" font-family="Helvetica" font-size="6" font-weight="normal">
                    <tspan x="9" y="6">(2,-1)</tspan>
                </text>
            </g>
            <g id="MilePoint" transform="translate(746, 540)">
                <path d="M0,5 L4,0 L8,5 L6,5 L6,20 L2,20 L2,5 L0,5 Z" id="Combined-Shape" fill="#FF0000"></path>
                <text id="(2,0)" fill="#000000" fill-rule="nonzero" font-family="Helvetica" font-size="6" font-weight="normal">
                    <tspan x="9" y="6">(2,0)</tspan>
                </text>
            </g>
            <g id="MilePoint" transform="translate(746, 440)">
                <path d="M0,5 L4,0 L8,5 L6,5 L6,20 L2,20 L2,5 L0,5 Z" id="Combined-Shape" fill="#FF0000"></path>
                <text id="(2,1)" fill="#000000" fill-rule="nonzero" font-family="Helvetica" font-size="6" font-weight="normal">
                    <tspan x="9" y="6">(2,1)</tspan>
                </text>
            </g>
            <g id="MilePoint" transform="translate(746, 340)">
                <path d="M0,5 L4,0 L8,5 L6,5 L6,20 L2,20 L2,5 L0,5 Z" id="Combined-Shape" fill="#FF0000"></path>
                <text id="(2,2)" fill="#000000" fill-rule="nonzero" font-family="Helvetica" font-size="6" font-weight="normal">
                    <tspan x="9" y="6">(2,2)</tspan>
                </text>
            </g>
            <g id="MilePoint" transform="translate(746, 240)">
                <path d="M0,5 L4,0 L8,5 L6,5 L6,20 L2,20 L2,5 L0,5 Z" id="Combined-Shape" fill="#FF0000"></path>
                <text id="(2,3)" fill="#000000" fill-rule="nonzero" font-family="Helvetica" font-size="6" font-weight="normal">
                    <tspan x="9" y="6">(2,3)</tspan>
                </text>
            </g>
            <g id="MilePoint" transform="translate(746, 140)">
                <path d="M0,5 L4,0 L8,5 L6,5 L6,20 L2,20 L2,5 L0,5 Z" id="Combined-Shape" fill="#FF0000"></path>
                <text id="(2,4)" fill="#000000" fill-rule="nonzero" font-family="Helvetica" font-size="6" font-weight="normal">
                    <tspan x="9" y="6">(2,4)</tspan>
                </text>
            </g>
            <g id="MilePoint" transform="translate(746, 40)">
                <path d="M0,5 L4,0 L8,5 L6,5 L6,20 L2,20 L2,5 L0,5 Z" id="Combined-Shape" fill="#FF0000"></path>
                <text id="(2,5)" fill="#000000" fill-rule="nonzero" font-family="Helvetica" font-size="6" font-weight="normal">
                    <tspan x="9" y="6">(2,5)</tspan>
                </text>
            </g>
            <g id="MilePoint" transform="translate(846, 1040)">
                <path d="M0,5 L4,0 L8,5 L6,5 L6,20 L2,20 L2,5 L0,5 Z" id="Combined-Shape" fill="#FF0000"></path>
                <text id="(3,-5)" fill="#000000" fill-rule="nonzero" font-family="Helvetica" font-size="6" font-weight="normal">
                    <tspan x="9" y="6">(3,-5)</tspan>
                </text>
            </g>
            <g id="MilePoint" transform="translate(846, 940)">
                <path d="M0,5 L4,0 L8,5 L6,5 L6,20 L2,20 L2,5 L0,5 Z" id="Combined-Shape" fill="#FF0000"></path>
                <text id="(3,-4)" fill="#000000" fill-rule="nonzero" font-family="Helvetica" font-size="6" font-weight="normal">
                    <tspan x="9" y="6">(3,-4)</tspan>
                </text>
            </g>
            <g id="MilePoint" transform="translate(846, 840)">
                <path d="M0,5 L4,0 L8,5 L6,5 L6,20 L2,20 L2,5 L0,5 Z" id="Combined-Shape" fill="#FF0000"></path>
                <text id="(3,-3)" fill="#000000" fill-rule="nonzero" font-family="Helvetica" font-size="6" font-weight="normal">
                    <tspan x="9" y="6">(3,-3)</tspan>
                </text>
            </g>
            <g id="MilePoint" transform="translate(846, 740)">
                <path d="M0,5 L4,0 L8,5 L6,5 L6,20 L2,20 L2,5 L0,5 Z" id="Combined-Shape" fill="#FF0000"></path>
                <text id="(3,-2)" fill="#000000" fill-rule="nonzero" font-family="Helvetica" font-size="6" font-weight="normal">
                    <tspan x="9" y="6">(3,-2)</tspan>
                </text>
            </g>
            <g id="MilePoint" transform="translate(846, 640)">
                <path d="M0,5 L4,0 L8,5 L6,5 L6,20 L2,20 L2,5 L0,5 Z" id="Combined-Shape" fill="#FF0000"></path>
                <text id="(3,-1)" fill="#000000" fill-rule="nonzero" font-family="Helvetica" font-size="6" font-weight="normal">
                    <tspan x="9" y="6">(3,-1)</tspan>
                </text>
            </g>
            <g id="MilePoint" transform="translate(846, 540)">
                <path d="M0,5 L4,0 L8,5 L6,5 L6,20 L2,20 L2,5 L0,5 Z" id="Combined-Shape" fill="#FF0000"></path>
                <text id="(3,0)" fill="#000000" fill-rule="nonzero" font-family="Helvetica" font-size="6" font-weight="normal">
                    <tspan x="9" y="6">(3,0)</tspan>
                </text>
            </g>
            <g id="MilePoint" transform="translate(846, 440)">
                <path d="M0,5 L4,0 L8,5 L6,5 L6,20 L2,20 L2,5 L0,5 Z" id="Combined-Shape" fill="#FF0000"></path>
                <text id="(3,1)" fill="#000000" fill-rule="nonzero" font-family="Helvetica" font-size="6" font-weight="normal">
                    <tspan x="9" y="6">(3,1)</tspan>
                </text>
            </g>
            <g id="MilePoint" transform="translate(846, 340)">
                <path d="M0,5 L4,0 L8,5 L6,5 L6,20 L2,20 L2,5 L0,5 Z" id="Combined-Shape" fill="#FF0000"></path>
                <text id="(3,2)" fill="#000000" fill-rule="nonzero" font-family="Helvetica" font-size="6" font-weight="normal">
                    <tspan x="9" y="6">(3,2)</tspan>
                </text>
            </g>
            <g id="MilePoint" transform="translate(846, 240)">
                <path d="M0,5 L4,0 L8,5 L6,5 L6,20 L2,20 L2,5 L0,5 Z" id="Combined-Shape" fill="#FF0000"></path>
                <text id="(3,3)" fill="#000000" fill-rule="nonzero" font-family="Helvetica" font-size="6" font-weight="normal">
                    <tspan x="9" y="6">(3,3)</tspan>
                </text>
            </g>
            <g id="MilePoint" transform="translate(846, 140)">
                <path d="M0,5 L4,0 L8,5 L6,5 L6,20 L2,20 L2,5 L0,5 Z" id="Combined-Shape" fill="#FF0000"></path>
                <text id="(3,4)" fill="#000000" fill-rule="nonzero" font-family="Helvetica" font-size="6" font-weight="normal">
                    <tspan x="9" y="6">(3,4)</tspan>
                </text>
            </g>
            <g id="MilePoint" transform="translate(846, 40)">
                <path d="M0,5 L4,0 L8,5 L6,5 L6,20 L2,20 L2,5 L0,5 Z" id="Combined-Shape" fill="#FF0000"></path>
                <text id="(3,5)" fill="#000000" fill-rule="nonzero" font-family="Helvetica" font-size="6" font-weight="normal">
                    <tspan x="9" y="6">(3,5)</tspan>
                </text>
            </g>
            <g id="MilePoint" transform="translate(946, 1040)">
                <path d="M0,5 L4,0 L8,5 L6,5 L6,20 L2,20 L2,5 L0,5 Z" id="Combined-Shape" fill="#FF0000"></path>
                <text id="(4,-5)" fill="#000000" fill-rule="nonzero" font-family="Helvetica" font-size="6" font-weight="normal">
                    <tspan x="9" y="6">(4,-5)</tspan>
                </text>
            </g>
            <g id="MilePoint" transform="translate(946, 940)">
                <path d="M0,5 L4,0 L8,5 L6,5 L6,20 L2,20 L2,5 L0,5 Z" id="Combined-Shape" fill="#FF0000"></path>
                <text id="(4,-4)" fill="#000000" fill-rule="nonzero" font-family="Helvetica" font-size="6" font-weight="normal">
                    <tspan x="9" y="6">(4,-4)</tspan>
                </text>
            </g>
            <g id="MilePoint" transform="translate(946, 840)">
                <path d="M0,5 L4,0 L8,5 L6,5 L6,20 L2,20 L2,5 L0,5 Z" id="Combined-Shape" fill="#FF0000"></path>
                <text id="(4,-3)" fill="#000000" fill-rule="nonzero" font-family="Helvetica" font-size="6" font-weight="normal">
                    <tspan x="9" y="6">(4,-3)</tspan>
                </text>
            </g>
            <g id="MilePoint" transform="translate(946, 740)">
                <path d="M0,5 L4,0 L8,5 L6,5 L6,20 L2,20 L2,5 L0,5 Z" id="Combined-Shape" fill="#FF0000"></path>
                <text id="(4,-2)" fill="#000000" fill-rule="nonzero" font-family="Helvetica" font-size="6" font-weight="normal">
                    <tspan x="9" y="6">(4,-2)</tspan>
                </text>
            </g>
            <g id="MilePoint" transform="translate(946, 640)">
                <path d="M0,5 L4,0 L8,5 L6,5 L6,20 L2,20 L2,5 L0,5 Z" id="Combined-Shape" fill="#FF0000"></path>
                <text id="(4,-1)" fill="#000000" fill-rule="nonzero" font-family="Helvetica" font-size="6" font-weight="normal">
                    <tspan x="9" y="6">(4,-1)</tspan>
                </text>
            </g>
            <g id="MilePoint" transform="translate(946, 540)">
                <path d="M0,5 L4,0 L8,5 L6,5 L6,20 L2,20 L2,5 L0,5 Z" id="Combined-Shape" fill="#FF0000"></path>
                <text id="(4,0)" fill="#000000" fill-rule="nonzero" font-family="Helvetica" font-size="6" font-weight="normal">
                    <tspan x="9" y="6">(4,0)</tspan>
                </text>
            </g>
            <g id="MilePoint" transform="translate(946, 440)">
                <path d="M0,5 L4,0 L8,5 L6,5 L6,20 L2,20 L2,5 L0,5 Z" id="Combined-Shape" fill="#FF0000"></path>
                <text id="(4,1)" fill="#000000" fill-rule="nonzero" font-family="Helvetica" font-size="6" font-weight="normal">
                    <tspan x="9" y="6">(4,1)</tspan>
                </text>
            </g>
            <g id="MilePoint" transform="translate(946, 340)">
                <path d="M0,5 L4,0 L8,5 L6,5 L6,20 L2,20 L2,5 L0,5 Z" id="Combined-Shape" fill="#FF0000"></path>
                <text id="(4,2)" fill="#000000" fill-rule="nonzero" font-family="Helvetica" font-size="6" font-weight="normal">
                    <tspan x="9" y="6">(4,2)</tspan>
                </text>
            </g>
            <g id="MilePoint" transform="translate(946, 240)">
                <path d="M0,5 L4,0 L8,5 L6,5 L6,20 L2,20 L2,5 L0,5 Z" id="Combined-Shape" fill="#FF0000"></path>
                <text id="(4,3)" fill="#000000" fill-rule="nonzero" font-family="Helvetica" font-size="6" font-weight="normal">
                    <tspan x="9" y="6">(4,3)</tspan>
                </text>
            </g>
            <g id="MilePoint" transform="translate(946, 140)">
                <path d="M0,5 L4,0 L8,5 L6,5 L6,20 L2,20 L2,5 L0,5 Z" id="Combined-Shape" fill="#FF0000"></path>
                <text id="(4,4)" fill="#000000" fill-rule="nonzero" font-family="Helvetica" font-size="6" font-weight="normal">
                    <tspan x="9" y="6">(4,4)</tspan>
                </text>
            </g>
            <g id="MilePoint" transform="translate(946, 40)">
                <path d="M0,5 L4,0 L8,5 L6,5 L6,20 L2,20 L2,5 L0,5 Z" id="Combined-Shape" fill="#FF0000"></path>
                <text id="(4,5)" fill="#000000" fill-rule="nonzero" font-family="Helvetica" font-size="6" font-weight="normal">
                    <tspan x="9" y="6">(4,5)</tspan>
                </text>
            </g>
            <g id="MilePoint" transform="translate(1046, 1040)">
                <path d="M0,5 L4,0 L8,5 L6,5 L6,20 L2,20 L2,5 L0,5 Z" id="Combined-Shape" fill="#FF0000"></path>
                <text id="(5,-5)" fill="#000000" fill-rule="nonzero" font-family="Helvetica" font-size="6" font-weight="normal">
                    <tspan x="9" y="6">(5,-5)</tspan>
                </text>
            </g>
            <g id="MilePoint" transform="translate(1046, 940)">
                <path d="M0,5 L4,0 L8,5 L6,5 L6,20 L2,20 L2,5 L0,5 Z" id="Combined-Shape" fill="#FF0000"></path>
                <text id="(5,-4)" fill="#000000" fill-rule="nonzero" font-family="Helvetica" font-size="6" font-weight="normal">
                    <tspan x="9" y="6">(5,-4)</tspan>
                </text>
            </g>
            <g id="MilePoint" transform="translate(1046, 840)">
                <path d="M0,5 L4,0 L8,5 L6,5 L6,20 L2,20 L2,5 L0,5 Z" id="Combined-Shape" fill="#FF0000"></path>
                <text id="(5,-3)" fill="#000000" fill-rule="nonzero" font-family="Helvetica" font-size="6" font-weight="normal">
                    <tspan x="9" y="6">(5,-3)</tspan>
                </text>
            </g>
            <g id="MilePoint" transform="translate(1046, 740)">
                <path d="M0,5 L4,0 L8,5 L6,5 L6,20 L2,20 L2,5 L0,5 Z" id="Combined-Shape" fill="#FF0000"></path>
                <text id="(5,-2)" fill="#000000" fill-rule="nonzero" font-family="Helvetica" font-size="6" font-weight="normal">
                    <tspan x="9" y="6">(5,-2)</tspan>
                </text>
            </g>
            <g id="MilePoint" transform="translate(1046, 640)">
                <path d="M0,5 L4,0 L8,5 L6,5 L6,20 L2,20 L2,5 L0,5 Z" id="Combined-Shape" fill="#FF0000"></path>
                <text id="(5,-1)" fill="#000000" fill-rule="nonzero" font-family="Helvetica" font-size="6" font-weight="normal">
                    <tspan x="9" y="6">(5,-1)</tspan>
                </text>
            </g>
            <g id="MilePoint" transform="translate(1046, 540)">
                <path d="M0,5 L4,0 L8,5 L6,5 L6,20 L2,20 L2,5 L0,5 Z" id="Combined-Shape" fill="#FF0000"></path>
                <text id="(5,0)" fill="#000000" fill-rule="nonzero" font-family="Helvetica" font-size="6" font-weight="normal">
                    <tspan x="9" y="6">(5,0)</tspan>
                </text>
            </g>
            <g id="MilePoint" transform="translate(1046, 440)">
                <path d="M0,5 L4,0 L8,5 L6,5 L6,20 L2,20 L2,5 L0,5 Z" id="Combined-Shape" fill="#FF0000"></path>
                <text id="(5,1)" fill="#000000" fill-rule="nonzero" font-family="Helvetica" font-size="6" font-weight="normal">
                    <tspan x="9" y="6">(5,1)</tspan>
                </text>
            </g>
            <g id="MilePoint" transform="translate(1046, 340)">
                <path d="M0,5 L4,0 L8,5 L6,5 L6,20 L2,20 L2,5 L0,5 Z" id="Combined-Shape" fill="#FF0000"></path>
                <text id="(5,2)" fill="#000000" fill-rule="nonzero" font-family="Helvetica" font-size="6" font-weight="normal">
                    <tspan x="9" y="6">(5,2)</tspan>
                </text>
            </g>
            <g id="MilePoint" transform="translate(1046, 240)">
                <path d="M0,5 L4,0 L8,5 L6,5 L6,20 L2,20 L2,5 L0,5 Z" id="Combined-Shape" fill="#FF0000"></path>
                <text id="(5,3)" fill="#000000" fill-rule="nonzero" font-family="Helvetica" font-size="6" font-weight="normal">
                    <tspan x="9" y="6">(5,3)</tspan>
                </text>
            </g>
            <g id="MilePoint" transform="translate(1046, 140)">
                <path d="M0,5 L4,0 L8,5 L6,5 L6,20 L2,20 L2,5 L0,5 Z" id="Combined-Shape" fill="#FF0000"></path>
                <text id="(5,4)" fill="#000000" fill-rule="nonzero" font-family="Helvetica" font-size="6" font-weight="normal">
                    <tspan x="9" y="6">(5,4)</tspan>
                </text>
            </g>
            <g id="MilePoint" transform="translate(1046, 40)">
                <path d="M0,5 L4,0 L8,5 L6,5 L6,20 L2,20 L2,5 L0,5 Z" id="Combined-Shape" fill="#FF0000"></path>
                <text id="(5,5)" fill="#000000" fill-rule="nonzero" font-family="Helvetica" font-size="6" font-weight="normal">
                    <tspan x="9" y="6">(5,5)</tspan>
                </text>
            </g>
            <g id="MilePoint" transform="translate(46, 1040)">
                <path d="M0,5 L4,0 L8,5 L6,5 L6,20 L2,20 L2,5 L0,5 Z" id="Combined-Shape" fill="#FF0000"></path>
                <text id="(-5,-5)" fill="#000000" fill-rule="nonzero" font-family="Helvetica" font-size="6" font-weight="normal">
                    <tspan x="9" y="6">(-5,-5)</tspan>
                </text>
            </g>
            <g id="MilePoint" transform="translate(46, 940)">
                <path d="M0,5 L4,0 L8,5 L6,5 L6,20 L2,20 L2,5 L0,5 Z" id="Combined-Shape" fill="#FF0000"></path>
                <text id="(-5,-4)" fill="#000000" fill-rule="nonzero" font-family="Helvetica" font-size="6" font-weight="normal">
                    <tspan x="9" y="6">(-5,-4)</tspan>
                </text>
            </g>
            <g id="MilePoint" transform="translate(46, 840)">
                <path d="M0,5 L4,0 L8,5 L6,5 L6,20 L2,20 L2,5 L0,5 Z" id="Combined-Shape" fill="#FF0000"></path>
                <text id="(-5,-3)" fill="#000000" fill-rule="nonzero" font-family="Helvetica" font-size="6" font-weight="normal">
                    <tspan x="9" y="6">(-5,-3)</tspan>
                </text>
            </g>
            <g id="MilePoint" transform="translate(46, 740)">
                <path d="M0,5 L4,0 L8,5 L6,5 L6,20 L2,20 L2,5 L0,5 Z" id="Combined-Shape" fill="#FF0000"></path>
                <text id="(-5,-2)" fill="#000000" fill-rule="nonzero" font-family="Helvetica" font-size="6" font-weight="normal">
                    <tspan x="9" y="6">(-5,-2)</tspan>
                </text>
            </g>
            <g id="MilePoint" transform="translate(46, 640)">
                <path d="M0,5 L4,0 L8,5 L6,5 L6,20 L2,20 L2,5 L0,5 Z" id="Combined-Shape" fill="#FF0000"></path>
                <text id="(-5,-1)" fill="#000000" fill-rule="nonzero" font-family="Helvetica" font-size="6" font-weight="normal">
                    <tspan x="9" y="6">(-5,-1)</tspan>
                </text>
            </g>
            <g id="MilePoint" transform="translate(46, 540)">
                <path d="M0,5 L4,0 L8,5 L6,5 L6,20 L2,20 L2,5 L0,5 Z" id="Combined-Shape" fill="#FF0000"></path>
                <text id="(-5,0)" fill="#000000" fill-rule="nonzero" font-family="Helvetica" font-size="6" font-weight="normal">
                    <tspan x="9" y="6">(-5,0)</tspan>
                </text>
            </g>
            <g id="MilePoint" transform="translate(46, 440)">
                <path d="M0,5 L4,0 L8,5 L6,5 L6,20 L2,20 L2,5 L0,5 Z" id="Combined-Shape" fill="#FF0000"></path>
                <text id="(-5,1)" fill="#000000" fill-rule="nonzero" font-family="Helvetica" font-size="6" font-weight="normal">
                    <tspan x="9" y="6">(-5,1)</tspan>
                </text>
            </g>
            <g id="MilePoint" transform="translate(46, 340)">
                <path d="M0,5 L4,0 L8,5 L6,5 L6,20 L2,20 L2,5 L0,5 Z" id="Combined-Shape" fill="#FF0000"></path>
                <text id="(-5,2)" fill="#000000" fill-rule="nonzero" font-family="Helvetica" font-size="6" font-weight="normal">
                    <tspan x="9" y="6">(-5,2)</tspan>
                </text>
            </g>
            <g id="MilePoint" transform="translate(46, 240)">
                <path d="M0,5 L4,0 L8,5 L6,5 L6,20 L2,20 L2,5 L0,5 Z" id="Combined-Shape" fill="#FF0000"></path>
                <text id="(-5,3)" fill="#000000" fill-rule="nonzero" font-family="Helvetica" font-size="6" font-weight="normal">
                    <tspan x="9" y="6">(-5,3)</tspan>
                </text>
            </g>
            <g id="MilePoint" transform="translate(46, 140)">
                <path d="M0,5 L4,0 L8,5 L6,5 L6,20 L2,20 L2,5 L0,5 Z" id="Combined-Shape" fill="#FF0000"></path>
                <text id="(-5,4)" fill="#000000" fill-rule="nonzero" font-family="Helvetica" font-size="6" font-weight="normal">
                    <tspan x="9" y="6">(-5,4)</tspan>
                </text>
            </g>
            <g id="MilePoint" transform="translate(46, 40)">
                <path d="M0,5 L4,0 L8,5 L6,5 L6,20 L2,20 L2,5 L0,5 Z" id="Combined-Shape" fill="#FF0000"></path>
                <text id="(-5,5)" fill="#000000" fill-rule="nonzero" font-family="Helvetica" font-size="6" font-weight="normal">
                    <tspan x="9" y="6">(-5,5)</tspan>
                </text>
            </g>
            <g id="MilePoint" transform="translate(146, 1040)">
                <path d="M0,5 L4,0 L8,5 L6,5 L6,20 L2,20 L2,5 L0,5 Z" id="Combined-Shape" fill="#FF0000"></path>
                <text id="(-4,-5)" fill="#000000" fill-rule="nonzero" font-family="Helvetica" font-size="6" font-weight="normal">
                    <tspan x="9" y="6">(-4,-5)</tspan>
                </text>
            </g>
            <g id="MilePoint" transform="translate(146, 940)">
                <path d="M0,5 L4,0 L8,5 L6,5 L6,20 L2,20 L2,5 L0,5 Z" id="Combined-Shape" fill="#FF0000"></path>
                <text id="(-4,-4)" fill="#000000" fill-rule="nonzero" font-family="Helvetica" font-size="6" font-weight="normal">
                    <tspan x="9" y="6">(-4,-4)</tspan>
                </text>
            </g>
            <g id="MilePoint" transform="translate(146, 840)">
                <path d="M0,5 L4,0 L8,5 L6,5 L6,20 L2,20 L2,5 L0,5 Z" id="Combined-Shape" fill="#FF0000"></path>
                <text id="(-4,-3)" fill="#000000" fill-rule="nonzero" font-family="Helvetica" font-size="6" font-weight="normal">
                    <tspan x="9" y="6">(-4,-3)</tspan>
                </text>
            </g>
            <g id="MilePoint" transform="translate(146, 740)">
                <path d="M0,5 L4,0 L8,5 L6,5 L6,20 L2,20 L2,5 L0,5 Z" id="Combined-Shape" fill="#FF0000"></path>
                <text id="(-4,-2)" fill="#000000" fill-rule="nonzero" font-family="Helvetica" font-size="6" font-weight="normal">
                    <tspan x="9" y="6">(-4,-2)</tspan>
                </text>
            </g>
            <g id="MilePoint" transform="translate(146, 640)">
                <path d="M0,5 L4,0 L8,5 L6,5 L6,20 L2,20 L2,5 L0,5 Z" id="Combined-Shape" fill="#FF0000"></path>
                <text id="(-4,-1)" fill="#000000" fill-rule="nonzero" font-family="Helvetica" font-size="6" font-weight="normal">
                    <tspan x="9" y="6">(-4,-1)</tspan>
                </text>
            </g>
            <g id="MilePoint" transform="translate(146, 540)">
                <path d="M0,5 L4,0 L8,5 L6,5 L6,20 L2,20 L2,5 L0,5 Z" id="Combined-Shape" fill="#FF0000"></path>
                <text id="(-4,0)" fill="#000000" fill-rule="nonzero" font-family="Helvetica" font-size="6" font-weight="normal">
                    <tspan x="9" y="6">(-4,0)</tspan>
                </text>
            </g>
            <g id="MilePoint" transform="translate(146, 440)">
                <path d="M0,5 L4,0 L8,5 L6,5 L6,20 L2,20 L2,5 L0,5 Z" id="Combined-Shape" fill="#FF0000"></path>
                <text id="(-4,1)" fill="#000000" fill-rule="nonzero" font-family="Helvetica" font-size="6" font-weight="normal">
                    <tspan x="9" y="6">(-4,1)</tspan>
                </text>
            </g>
            <g id="MilePoint" transform="translate(146, 340)">
                <path d="M0,5 L4,0 L8,5 L6,5 L6,20 L2,20 L2,5 L0,5 Z" id="Combined-Shape" fill="#FF0000"></path>
                <text id="(-4,2)" fill="#000000" fill-rule="nonzero" font-family="Helvetica" font-size="6" font-weight="normal">
                    <tspan x="9" y="6">(-4,2)</tspan>
                </text>
            </g>
            <g id="MilePoint" transform="translate(146, 240)">
                <path d="M0,5 L4,0 L8,5 L6,5 L6,20 L2,20 L2,5 L0,5 Z" id="Combined-Shape" fill="#FF0000"></path>
                <text id="(-4,3)" fill="#000000" fill-rule="nonzero" font-family="Helvetica" font-size="6" font-weight="normal">
                    <tspan x="9" y="6">(-4,3)</tspan>
                </text>
            </g>
            <g id="MilePoint" transform="translate(146, 140)">
                <path d="M0,5 L4,0 L8,5 L6,5 L6,20 L2,20 L2,5 L0,5 Z" id="Combined-Shape" fill="#FF0000"></path>
                <text id="(-4,4)" fill="#000000" fill-rule="nonzero" font-family="Helvetica" font-size="6" font-weight="normal">
                    <tspan x="9" y="6">(-4,4)</tspan>
                </text>
            </g>
            <g id="MilePoint" transform="translate(146, 40)">
                <path d="M0,5 L4,0 L8,5 L6,5 L6,20 L2,20 L2,5 L0,5 Z" id="Combined-Shape" fill="#FF0000"></path>
                <text id="(-4,5)" fill="#000000" fill-rule="nonzero" font-family="Helvetica" font-size="6" font-weight="normal">
                    <tspan x="9" y="6">(-4,5)</tspan>
                </text>
            </g>
            <g id="MilePoint" transform="translate(246, 1040)">
                <path d="M0,5 L4,0 L8,5 L6,5 L6,20 L2,20 L2,5 L0,5 Z" id="Combined-Shape" fill="#FF0000"></path>
                <text id="(-3,-5)" fill="#000000" fill-rule="nonzero" font-family="Helvetica" font-size="6" font-weight="normal">
                    <tspan x="9" y="6">(-3,-5)</tspan>
                </text>
            </g>
            <g id="MilePoint" transform="translate(246, 940)">
                <path d="M0,5 L4,0 L8,5 L6,5 L6,20 L2,20 L2,5 L0,5 Z" id="Combined-Shape" fill="#FF0000"></path>
                <text id="(-3,-4)" fill="#000000" fill-rule="nonzero" font-family="Helvetica" font-size="6" font-weight="normal">
                    <tspan x="9" y="6">(-3,-4)</tspan>
                </text>
            </g>
            <g id="MilePoint" transform="translate(246, 840)">
                <path d="M0,5 L4,0 L8,5 L6,5 L6,20 L2,20 L2,5 L0,5 Z" id="Combined-Shape" fill="#FF0000"></path>
                <text id="(-3,-3)" fill="#000000" fill-rule="nonzero" font-family="Helvetica" font-size="6" font-weight="normal">
                    <tspan x="9" y="6">(-3,-3)</tspan>
                </text>
            </g>
            <g id="MilePoint" transform="translate(246, 740)">
                <path d="M0,5 L4,0 L8,5 L6,5 L6,20 L2,20 L2,5 L0,5 Z" id="Combined-Shape" fill="#FF0000"></path>
                <text id="(-3,-2)" fill="#000000" fill-rule="nonzero" font-family="Helvetica" font-size="6" font-weight="normal">
                    <tspan x="9" y="6">(-3,-2)</tspan>
                </text>
            </g>
            <g id="MilePoint" transform="translate(246, 640)">
                <path d="M0,5 L4,0 L8,5 L6,5 L6,20 L2,20 L2,5 L0,5 Z" id="Combined-Shape" fill="#FF0000"></path>
                <text id="(-3,-1)" fill="#000000" fill-rule="nonzero" font-family="Helvetica" font-size="6" font-weight="normal">
                    <tspan x="9" y="6">(-3,-1)</tspan>
                </text>
            </g>
            <g id="MilePoint" transform="translate(246, 540)">
                <path d="M0,5 L4,0 L8,5 L6,5 L6,20 L2,20 L2,5 L0,5 Z" id="Combined-Shape" fill="#FF0000"></path>
                <text id="(-3,0)" fill="#000000" fill-rule="nonzero" font-family="Helvetica" font-size="6" font-weight="normal">
                    <tspan x="9" y="6">(-3,0)</tspan>
                </text>
            </g>
            <g id="MilePoint" transform="translate(246, 440)">
                <path d="M0,5 L4,0 L8,5 L6,5 L6,20 L2,20 L2,5 L0,5 Z" id="Combined-Shape" fill="#FF0000"></path>
                <text id="(-3,1)" fill="#000000" fill-rule="nonzero" font-family="Helvetica" font-size="6" font-weight="normal">
                    <tspan x="9" y="6">(-3,1)</tspan>
                </text>
            </g>
            <g id="MilePoint" transform="translate(246, 340)">
                <path d="M0,5 L4,0 L8,5 L6,5 L6,20 L2,20 L2,5 L0,5 Z" id="Combined-Shape" fill="#FF0000"></path>
                <text id="(-3,2)" fill="#000000" fill-rule="nonzero" font-family="Helvetica" font-size="6" font-weight="normal">
                    <tspan x="9" y="6">(-3,2)</tspan>
                </text>
            </g>
            <g id="MilePoint" transform="translate(246, 240)">
                <path d="M0,5 L4,0 L8,5 L6,5 L6,20 L2,20 L2,5 L0,5 Z" id="Combined-Shape" fill="#FF0000"></path>
                <text id="(-3,3)" fill="#000000" fill-rule="nonzero" font-family="Helvetica" font-size="6" font-weight="normal">
                    <tspan x="9" y="6">(-3,3)</tspan>
                </text>
            </g>
            <g id="MilePoint" transform="translate(246, 140)">
                <path d="M0,5 L4,0 L8,5 L6,5 L6,20 L2,20 L2,5 L0,5 Z" id="Combined-Shape" fill="#FF0000"></path>
                <text id="(-3,4)" fill="#000000" fill-rule="nonzero" font-family="Helvetica" font-size="6" font-weight="normal">
                    <tspan x="9" y="6">(-3,4)</tspan>
                </text>
            </g>
            <g id="MilePoint" transform="translate(246, 40)">
                <path d="M0,5 L4,0 L8,5 L6,5 L6,20 L2,20 L2,5 L0,5 Z" id="Combined-Shape" fill="#FF0000"></path>
                <text id="(-3,5)" fill="#000000" fill-rule="nonzero" font-family="Helvetica" font-size="6" font-weight="normal">
                    <tspan x="9" y="6">(-3,5)</tspan>
                </text>
            </g>
            <g id="MilePoint" transform="translate(346, 1040)">
                <path d="M0,5 L4,0 L8,5 L6,5 L6,20 L2,20 L2,5 L0,5 Z" id="Combined-Shape" fill="#FF0000"></path>
                <text id="(-2,-5)" fill="#000000" fill-rule="nonzero" font-family="Helvetica" font-size="6" font-weight="normal">
                    <tspan x="9" y="6">(-2,-5)</tspan>
                </text>
            </g>
            <g id="MilePoint" transform="translate(346, 940)">
                <path d="M0,5 L4,0 L8,5 L6,5 L6,20 L2,20 L2,5 L0,5 Z" id="Combined-Shape" fill="#FF0000"></path>
                <text id="(-2,-4)" fill="#000000" fill-rule="nonzero" font-family="Helvetica" font-size="6" font-weight="normal">
                    <tspan x="9" y="6">(-2,-4)</tspan>
                </text>
            </g>
            <g id="MilePoint" transform="translate(346, 840)">
                <path d="M0,5 L4,0 L8,5 L6,5 L6,20 L2,20 L2,5 L0,5 Z" id="Combined-Shape" fill="#FF0000"></path>
                <text id="(-2,-3)" fill="#000000" fill-rule="nonzero" font-family="Helvetica" font-size="6" font-weight="normal">
                    <tspan x="9" y="6">(-2,-3)</tspan>
                </text>
            </g>
            <g id="MilePoint" transform="translate(346, 740)">
                <path d="M0,5 L4,0 L8,5 L6,5 L6,20 L2,20 L2,5 L0,5 Z" id="Combined-Shape" fill="#FF0000"></path>
                <text id="(-2,-2)" fill="#000000" fill-rule="nonzero" font-family="Helvetica" font-size="6" font-weight="normal">
                    <tspan x="9" y="6">(-2,-2)</tspan>
                </text>
            </g>
            <g id="MilePoint" transform="translate(346, 640)">
                <path d="M0,5 L4,0 L8,5 L6,5 L6,20 L2,20 L2,5 L0,5 Z" id="Combined-Shape" fill="#FF0000"></path>
                <text id="(-2,-1)" fill="#000000" fill-rule="nonzero" font-family="Helvetica" font-size="6" font-weight="normal">
                    <tspan x="9" y="6">(-2,-1)</tspan>
                </text>
            </g>
            <g id="MilePoint" transform="translate(346, 540)">
                <path d="M0,5 L4,0 L8,5 L6,5 L6,20 L2,20 L2,5 L0,5 Z" id="Combined-Shape" fill="#FF0000"></path>
                <text id="(-2,0)" fill="#000000" fill-rule="nonzero" font-family="Helvetica" font-size="6" font-weight="normal">
                    <tspan x="9" y="6">(-2,0)</tspan>
                </text>
            </g>
            <g id="MilePoint" transform="translate(346, 440)">
                <path d="M0,5 L4,0 L8,5 L6,5 L6,20 L2,20 L2,5 L0,5 Z" id="Combined-Shape" fill="#FF0000"></path>
                <text id="(-2,1)" fill="#000000" fill-rule="nonzero" font-family="Helvetica" font-size="6" font-weight="normal">
                    <tspan x="9" y="6">(-2,1)</tspan>
                </text>
            </g>
            <g id="MilePoint" transform="translate(346, 340)">
                <path d="M0,5 L4,0 L8,5 L6,5 L6,20 L2,20 L2,5 L0,5 Z" id="Combined-Shape" fill="#FF0000"></path>
                <text id="(-2,2)" fill="#000000" fill-rule="nonzero" font-family="Helvetica" font-size="6" font-weight="normal">
                    <tspan x="9" y="6">(-2,2)</tspan>
                </text>
            </g>
            <g id="MilePoint" transform="translate(346, 240)">
                <path d="M0,5 L4,0 L8,5 L6,5 L6,20 L2,20 L2,5 L0,5 Z" id="Combined-Shape" fill="#FF0000"></path>
                <text id="(-2,3)" fill="#000000" fill-rule="nonzero" font-family="Helvetica" font-size="6" font-weight="normal">
                    <tspan x="9" y="6">(-2,3)</tspan>
                </text>
            </g>
            <g id="MilePoint" transform="translate(346, 140)">
                <path d="M0,5 L4,0 L8,5 L6,5 L6,20 L2,20 L2,5 L0,5 Z" id="Combined-Shape" fill="#FF0000"></path>
                <text id="(-2,4)" fill="#000000" fill-rule="nonzero" font-family="Helvetica" font-size="6" font-weight="normal">
                    <tspan x="9" y="6">(-2,4)</tspan>
                </text>
            </g>
            <g id="MilePoint" transform="translate(346, 40)">
                <path d="M0,5 L4,0 L8,5 L6,5 L6,20 L2,20 L2,5 L0,5 Z" id="Combined-Shape" fill="#FF0000"></path>
                <text id="(-2,5)" fill="#000000" fill-rule="nonzero" font-family="Helvetica" font-size="6" font-weight="normal">
                    <tspan x="9" y="6">(-2,5)</tspan>
                </text>
            </g>
            <g id="MilePoint" transform="translate(446, 1040)">
                <path d="M0,5 L4,0 L8,5 L6,5 L6,20 L2,20 L2,5 L0,5 Z" id="Combined-Shape" fill="#FF0000"></path>
                <text id="(-1,-5)" fill="#000000" fill-rule="nonzero" font-family="Helvetica" font-size="6" font-weight="normal">
                    <tspan x="9" y="6">(-1,-5)</tspan>
                </text>
            </g>
            <g id="MilePoint" transform="translate(446, 940)">
                <path d="M0,5 L4,0 L8,5 L6,5 L6,20 L2,20 L2,5 L0,5 Z" id="Combined-Shape" fill="#FF0000"></path>
                <text id="(-1,-4)" fill="#000000" fill-rule="nonzero" font-family="Helvetica" font-size="6" font-weight="normal">
                    <tspan x="9" y="6">(-1,-4)</tspan>
                </text>
            </g>
            <g id="MilePoint" transform="translate(446, 840)">
                <path d="M0,5 L4,0 L8,5 L6,5 L6,20 L2,20 L2,5 L0,5 Z" id="Combined-Shape" fill="#FF0000"></path>
                <text id="(-1,-3)" fill="#000000" fill-rule="nonzero" font-family="Helvetica" font-size="6" font-weight="normal">
                    <tspan x="9" y="6">(-1,-3)</tspan>
                </text>
            </g>
            <g id="MilePoint" transform="translate(446, 740)">
                <path d="M0,5 L4,0 L8,5 L6,5 L6,20 L2,20 L2,5 L0,5 Z" id="Combined-Shape" fill="#FF0000"></path>
                <text id="(-1,-2)" fill="#000000" fill-rule="nonzero" font-family="Helvetica" font-size="6" font-weight="normal">
                    <tspan x="9" y="6">(-1,-2)</tspan>
                </text>
            </g>
            <g id="MilePoint" transform="translate(446, 640)">
                <path d="M0,5 L4,0 L8,5 L6,5 L6,20 L2,20 L2,5 L0,5 Z" id="Combined-Shape" fill="#FF0000"></path>
                <text id="(-1,-1)" fill="#000000" fill-rule="nonzero" font-family="Helvetica" font-size="6" font-weight="normal">
                    <tspan x="9" y="6">(-1,-1)</tspan>
                </text>
            </g>
            <g id="MilePoint" transform="translate(446, 540)">
                <path d="M0,5 L4,0 L8,5 L6,5 L6,20 L2,20 L2,5 L0,5 Z" id="Combined-Shape" fill="#FF0000"></path>
                <text id="(-1,0)" fill="#000000" fill-rule="nonzero" font-family="Helvetica" font-size="6" font-weight="normal">
                    <tspan x="9" y="6">(-1,0)</tspan>
                </text>
            </g>
            <g id="MilePoint" transform="translate(446, 440)">
                <path d="M0,5 L4,0 L8,5 L6,5 L6,20 L2,20 L2,5 L0,5 Z" id="Combined-Shape" fill="#FF0000"></path>
                <text id="(-1,1)" fill="#000000" fill-rule="nonzero" font-family="Helvetica" font-size="6" font-weight="normal">
                    <tspan x="9" y="6">(-1,1)</tspan>
                </text>
            </g>
            <g id="MilePoint" transform="translate(446, 340)">
                <path d="M0,5 L4,0 L8,5 L6,5 L6,20 L2,20 L2,5 L0,5 Z" id="Combined-Shape" fill="#FF0000"></path>
                <text id="(-1,2)" fill="#000000" fill-rule="nonzero" font-family="Helvetica" font-size="6" font-weight="normal">
                    <tspan x="9" y="6">(-1,2)</tspan>
                </text>
            </g>
            <g id="MilePoint" transform="translate(446, 240)">
                <path d="M0,5 L4,0 L8,5 L6,5 L6,20 L2,20 L2,5 L0,5 Z" id="Combined-Shape" fill="#FF0000"></path>
                <text id="(-1,3)" fill="#000000" fill-rule="nonzero" font-family="Helvetica" font-size="6" font-weight="normal">
                    <tspan x="9" y="6">(-1,3)</tspan>
                </text>
            </g>
            <g id="MilePoint" transform="translate(446, 140)">
                <path d="M0,5 L4,0 L8,5 L6,5 L6,20 L2,20 L2,5 L0,5 Z" id="Combined-Shape" fill="#FF0000"></path>
                <text id="(-1,4)" fill="#000000" fill-rule="nonzero" font-family="Helvetica" font-size="6" font-weight="normal">
                    <tspan x="9" y="6">(-1,4)</tspan>
                </text>
            </g>
            <g id="MilePoint" transform="translate(446, 40)">
                <path d="M0,5 L4,0 L8,5 L6,5 L6,20 L2,20 L2,5 L0,5 Z" id="Combined-Shape" fill="#FF0000"></path>
                <text id="(-1,5)" fill="#000000" fill-rule="nonzero" font-family="Helvetica" font-size="6" font-weight="normal">
                    <tspan x="9" y="6">(-1,5)</tspan>
                </text>
            </g>
            <rect id="Rectangle" stroke="#979797" fill="#D8D8D8" opacity="0" x="1079.5" y="1060.5" width="20" height="39"></rect>
            <rect id="Rectangle" stroke="#979797" fill="#D8D8D8" opacity="0" x="0.5" y="0.5" width="45" height="39"></rect>
        </g>
    </g>
</svg>