<?xml version="1.0" encoding="UTF-8"?>
<svg width="40px" height="40px" viewBox="0 0 40 40" version="1.1" xmlns="http://www.w3.org/2000/svg" xmlns:xlink="http://www.w3.org/1999/xlink">
    <title>TFD-VOR</title>
    <g id="TestMap" stroke="none" stroke-width="1" fill="none" fill-rule="evenodd">
        <g id="TFD-VOR">
            <rect id="Rectangle" fill="#D8D8D8" opacity="0" x="0" y="0" width="40" height="40"></rect>
            <line x1="16.0906099" y1="14" x2="23.9001337" y2="14" id="Line" stroke="#000000" stroke-linecap="square"></line>
            <line x1="12.4953718" y1="19.5" x2="16.4953718" y2="27.5" id="Line" stroke="#000000" stroke-linecap="square"></line>
            <line x1="23.4953718" y1="27.5" x2="28.4953718" y2="19.5" id="Line" stroke="#000000" stroke-linecap="square"></line>
            <rect id="Rectangle" stroke="#000000" fill="#0000FF" stroke-linejoin="round" transform="translate(19.9954, 29) rotate(180) translate(-19.9954, -29)" x="15.9953718" y="27" width="8" height="4"></rect>
            <path d="M31.1308439,14.6773658 L31.1308439,17.5422767 L24.1308439,17.5422767 L24.1308439,14.6773658 L31.1308439,14.6773658 Z" id="Rectangle" stroke="#000000" fill="#0000FF" transform="translate(27.6308, 16.1098) rotate(60) translate(-27.6308, -16.1098)"></path>
            <path d="M16.2009218,14.5603752 L16.2009218,17.4252861 L9.47110006,17.4252861 L9.47110006,14.5603752 L16.2009218,14.5603752 Z" id="Rectangle" stroke="#000000" fill="#0000FF" transform="translate(12.836, 15.9928) rotate(300) translate(-12.836, -15.9928)"></path>
            <text id="TFD" fill="#000000" fill-rule="nonzero" font-family="Helvetica" font-size="6" font-weight="normal">
                <tspan x="27" y="31">TFD</tspan>
            </text>
            <circle id="Oval" stroke="#000000" fill="#0000FF" cx="19.9953718" cy="20" r="1"></circle>
        </g>
    </g>
</svg>